<svg width="830" height="630" viewBox="0 0 830 630" fill="none" xmlns="http://www.w3.org/2000/svg">
<path d="M716.904 510.589C699.369 515.844 681.499 519.909 663.416 522.759C645.504 524.72 627.455 525.106 609.476 523.911C573.188 522.414 537.224 516.442 502.399 506.132C466.089 495.614 432.283 479.438 397.776 464.363C362.418 448.987 326.107 435.014 287.243 432.41C265.497 430.872 243.68 434.138 223.337 441.976C213.321 445.882 203.805 450.94 194.239 455.698C184.673 460.456 174.206 465.715 164.189 471.675C164.125 471.73 164.081 471.805 164.062 471.888C164.043 471.97 164.051 472.057 164.084 472.135C164.118 472.213 164.175 472.278 164.248 472.321C164.321 472.365 164.406 472.384 164.49 472.376C183.672 469.12 202.202 462.86 221.134 458.503C230.38 456.144 239.788 454.47 249.28 453.495C258.563 452.802 267.879 452.685 277.176 453.144C314.538 454.897 350.548 468.169 384.454 483.194C418.36 498.219 453.318 514.295 489.628 524.863C525.062 535.287 561.774 540.732 598.709 541.04C619.014 540.84 639.261 538.829 659.209 535.029C679.538 532.164 699.502 527.127 718.757 520.005C724.116 517.851 722.163 509.487 716.303 511.09L716.904 510.589Z" fill="white"/>
<path d="M470.497 18C298.081 18 230.895 56.6142 230.895 155.544V389.878C230.895 464.355 298.848 536.183 357.036 575.001C392.108 598.279 430.329 616.461 470.548 629C510.767 616.461 548.988 598.279 584.06 575.001C642.196 536.591 709.895 464.763 709.895 390.285V155.951C709.895 56.6141 642.963 18 470.497 18Z" fill="#001489"/>
<path d="M374 310L361.5 295L329 300.5L310.5 316.5L319.5 336L313 345.5L273 429.5L438.5 474.5L466 397.5L486.5 400L489 366L486.5 349L450.5 342.5L442.5 349L408 358.5L381 349L367 328.5L374 310Z" fill="#CAE1F6"/>
<path d="M446.358 444.379C447.569 444.992 448.932 445.242 450.282 445.1C451.632 444.957 452.913 444.429 453.97 443.578C454.621 441.525 455.323 439.521 455.974 437.468C455.852 436.813 455.614 436.186 455.272 435.615C451.358 429.897 446.416 424.955 440.698 421.041C435.69 416.734 430.331 412.727 424.922 408.821C414.073 400.932 402.638 393.884 390.716 387.736C367.828 376.066 341.634 365.399 315.591 364.046C315.428 364.052 315.271 364.11 315.143 364.212C315.016 364.315 314.926 364.456 314.886 364.615C314.846 364.774 314.86 364.941 314.924 365.091C314.988 365.242 315.099 365.367 315.241 365.449C326.66 370.457 338.68 375.065 350.299 380.474C362.022 385.764 373.427 391.734 384.455 398.353C395.345 404.792 405.847 411.866 415.907 419.538C420.916 423.345 425.623 427.351 430.381 431.408C433.136 433.712 435.84 436.416 438.745 439.271C438.996 440.006 439.403 440.678 439.94 441.24C440.476 441.802 441.128 442.241 441.85 442.526L443.403 443.027C444.297 443.644 445.234 444.196 446.207 444.68L446.358 444.379Z" fill="white"/>
<path d="M447.109 464.813C448.06 461.408 449.112 458.052 450.214 454.797C448.254 452.763 445.969 451.07 443.453 449.788L434.388 444.48C427.827 440.673 421.116 437.067 414.355 433.612C400.805 426.627 386.915 420.326 372.736 414.73C358.743 409.114 344.323 404.625 329.614 401.308C322.633 399.82 315.578 398.7 308.479 397.953C304.773 397.602 301.017 397.252 297.311 397.151H292.302H288.847C288.645 397.151 288.446 397.196 288.264 397.283C288.082 397.369 287.922 397.496 287.795 397.652V397.352C287.719 397.308 287.633 397.285 287.545 397.285C287.457 397.285 287.37 397.308 287.294 397.352H286.894C286.593 397.352 286.293 397.752 286.343 398.103V398.403C286.343 398.804 286.643 399.255 287.044 399.305C293.805 400.607 300.716 400.757 307.478 401.909C314.239 403.061 321.05 404.614 327.511 406.417C341.449 410.372 355.061 415.396 368.228 421.442C380.999 427.051 393.27 433.261 405.79 439.972C411.951 443.328 418.011 446.834 424.071 450.44C427.076 452.243 430.03 454.096 432.985 455.949L437.443 458.803L439.897 460.356C440.066 461.012 440.336 461.637 440.698 462.209L440.999 462.66C441.439 463.465 442.092 464.134 442.887 464.594C443.682 465.053 444.588 465.285 445.506 465.264H447.159L447.109 464.813Z" fill="white"/>
<path d="M450.565 402.911H450.865C451.324 404.185 452.108 405.318 453.14 406.196C454.172 407.073 455.416 407.666 456.748 407.914C458.08 408.162 459.453 408.057 460.732 407.61C462.011 407.163 463.15 406.389 464.037 405.365C464.012 405.015 464.012 404.663 464.037 404.313C464.261 402.539 464.859 400.832 465.79 399.305C464.989 393.946 457.777 390.14 453.52 387.535C440.521 379.675 426.981 372.746 413.003 366.801C399.123 360.865 384.869 355.846 370.332 351.776C355.684 347.253 340.556 344.462 325.257 343.462C324.903 343.457 324.559 343.581 324.29 343.811C324.021 344.041 323.845 344.362 323.796 344.713C323.747 345.063 323.827 345.42 324.023 345.716C324.218 346.011 324.515 346.225 324.857 346.317C347.444 354.581 370.482 360.841 392.419 370.858C403.136 375.866 413.654 380.874 423.921 386.784C428.929 389.739 433.937 392.644 438.946 395.699L446.107 400.156L450.565 402.911Z" fill="white"/>
<path d="M379.247 332.344C369.23 329.005 359.214 326.05 349.197 323.479C338.177 320.286 326.924 317.959 315.542 316.518C314.941 317.67 314.34 318.772 313.839 319.974C326.209 322.134 338.398 325.231 350.299 329.239C362.352 333.012 374.289 337.135 386.108 341.609C383.459 338.846 381.231 335.707 379.497 332.294L379.247 332.344Z" fill="white"/>
<path d="M427.878 350.574C426.978 350.927 426.058 351.228 425.123 351.476C421.188 352.414 417.149 352.851 413.104 352.778C440.294 364.38 466.434 378.304 491.233 394.397C492.187 395.047 493.337 395.348 494.488 395.248C494.488 391.592 494.939 387.936 495.189 384.28C473.366 371.891 450.916 360.641 427.928 350.574H427.878Z" fill="white"/>
<path d="M373.187 307.503C365.787 305.805 358.296 304.534 350.75 303.697C342.383 302.257 333.793 302.858 325.708 305.449C325.358 305.449 325.708 306.101 325.708 306.151C330.166 306.551 334.673 306.151 339.131 306.551C344.044 307.025 348.927 307.778 353.755 308.805C361.317 310.358 368.78 312.461 376.092 314.715C375.19 312.611 374.439 310.458 373.738 308.304C373.601 308.035 373.432 307.783 373.237 307.553L373.187 307.503Z" fill="white"/>
<path d="M481.066 343.813C478.512 342.611 476.058 341.509 473.353 340.407C466.456 341.526 459.499 342.245 452.519 342.561C459.28 345.316 466.041 348.17 472.552 351.175C480.315 354.46 487.874 358.206 495.189 362.394C494.86 357.87 493.882 353.417 492.285 349.172C488.528 347.319 484.722 345.516 480.916 343.763L481.066 343.813Z" fill="white"/>
<path d="M599.81 485.798C607.974 478.987 616.588 472.576 624.601 465.765C632.963 458.249 640.763 450.13 647.94 441.475C662.714 424.296 673.582 404.464 685.001 385.031C696.42 365.599 707.639 345.867 711.545 323.63C712.597 317.52 713.899 311.46 714.801 305.299C714.801 304.198 715.051 303.096 715.201 301.944C715.057 301.784 714.874 301.664 714.67 301.595C714.466 301.527 714.248 301.512 714.037 301.552C713.825 301.592 713.628 301.686 713.463 301.825C713.299 301.964 713.173 302.143 713.098 302.344C710.093 311.109 707.789 320.024 704.033 328.538C700.276 337.052 696.37 344.114 692.263 351.776C683.699 367.653 673.783 382.828 663.766 397.802C645.072 426.666 621.932 452.392 595.203 474.029C588.325 479.432 581.152 484.448 573.717 489.054C571.764 490.306 569.66 491.407 567.457 492.559C570.962 496.015 574.418 499.571 577.824 503.177C585.336 497.718 592.648 491.808 599.81 485.798Z" fill="white"/>
<path d="M313.489 240.091L313.939 237.587C308.931 241.794 303.923 246.101 298.915 250.559C294.611 255.519 290.614 260.738 286.945 266.184C268.984 292.087 255.617 320.888 247.429 351.325C244.474 362.243 244.024 375.015 239.066 385.482C239.006 389.603 237.976 393.652 236.061 397.302C232.905 402.009 225.243 404.363 220.435 406.968L213.123 410.924C212.72 413.255 212.569 415.622 212.672 417.986L218.682 416.784C224.942 415.582 231.403 414.68 237.563 412.977C242.684 411.773 247.304 409.008 250.785 405.064C254.16 400.44 256.905 395.387 258.948 390.039C261.352 385.031 263.957 379.622 266.06 374.414C268.164 369.205 271.069 361.893 272.771 358.487C274.474 355.082 275.476 352.127 276.778 348.921L278.581 344.614C278.647 344.367 278.748 344.131 278.881 343.913C281.185 338.604 283.589 333.346 286.244 328.237C291.437 317.932 297.327 307.992 303.873 298.488L304.273 297.887L306.828 294.782C307.879 293.53 308.981 292.328 310.083 291.076C306.327 274.849 310.434 256.018 313.338 240.592L313.489 240.091Z" fill="white"/>
<path d="M495.84 125.101C489.279 124.45 482.568 124.45 475.807 123.198C463.386 120.894 450.465 114.283 438.896 119.341C435.201 121.209 431.822 123.642 428.879 126.553L412.903 140.977C409.307 143.887 406.108 147.254 403.387 150.994C392.669 167.121 401.584 190.71 391.167 207.037C386.859 213.798 379.798 218.305 374.689 224.465C360.115 242.145 364.673 268.188 370.182 290.475C372.686 300.959 375.223 311.426 377.794 321.877C378.782 328.051 381.219 333.904 384.906 338.955C390.052 345.966 397.497 350.947 405.941 353.028C423.72 356.434 431.383 348.02 449.112 344.514C466.141 346.868 495.74 339.105 513.269 338.154C520.03 337.803 527.192 338.705 533.302 335.449C537.192 332.859 540.459 329.438 542.868 325.433C552.708 312.663 561.185 298.899 568.159 284.365C575.443 265.958 580.015 246.59 581.732 226.869C587.942 176.787 544.771 130.209 496.04 125.151L495.84 125.101Z" fill="#FDE7DE"/>
<path d="M467.093 302.094C451.631 302.094 439.096 292.542 439.096 280.759C439.096 268.975 451.631 259.423 467.093 259.423C482.554 259.423 495.089 268.975 495.089 280.759C495.089 292.542 482.554 302.094 467.093 302.094Z" fill="#F9C9B7"/>
<path d="M390.366 208.038C386.009 214.148 379.498 218.455 374.69 224.265C369.64 230.55 366.479 238.14 365.575 246.151C368.829 247.096 372.203 247.568 375.591 247.553C390.917 247.453 403.638 237.887 403.638 226.118C403.394 222.182 402.035 218.397 399.72 215.205C397.406 212.012 394.231 209.544 390.566 208.088L390.366 208.038Z" fill="#F9C9B7"/>
<path d="M497.643 388.437C528.243 390.791 556.49 373.412 581.431 355.432C585.02 352.57 589.067 350.335 593.401 348.821C601.515 346.467 611.181 349.172 618.042 344.264C624.903 339.356 628.059 327.987 636.072 328.738C639.477 329.089 643.534 331.593 646.088 329.089C646.675 328.213 647.033 327.204 647.129 326.154C647.225 325.104 647.057 324.047 646.639 323.079C644.696 316.301 641.333 310.013 636.773 304.634C632.214 299.254 626.563 294.906 620.196 291.877C619.264 290.923 618.099 290.229 616.816 289.863C615.534 289.497 614.178 289.473 612.883 289.791C611.588 290.11 610.399 290.761 609.433 291.68C608.467 292.599 607.757 293.755 607.374 295.032C596.757 292.328 583.435 290.475 576.724 299.139C572.817 304.147 572.717 311.259 569.762 316.919C565.605 324.782 556.741 328.738 548.377 331.943C540.013 335.149 531.799 337.753 523.335 340.207C517.075 342.01 501.75 342.811 497.092 346.868C493.636 349.823 499.947 388.737 497.743 388.537L497.643 388.437Z" fill="#FDE7DE"/>
<path d="M385.156 193.464C388.312 185.401 381.951 176.837 375.14 171.428C370.282 167.579 364.987 164.317 359.364 161.712C356.058 156.353 366.626 150.593 364.372 144.633C362.82 140.176 356.008 141.027 352.202 143.882C348.396 146.737 345.04 150.994 340.282 150.994C338.593 150.743 336.921 150.392 335.274 149.942C326.61 148.54 319.147 157.605 310.232 157.405C310.833 154.8 311.485 152.396 312.086 149.642C310.366 148.834 308.487 148.424 306.588 148.44C304.688 148.457 302.817 148.9 301.112 149.738C299.407 150.576 297.912 151.786 296.738 153.279C295.564 154.772 294.741 156.51 294.329 158.365C293.917 160.219 293.928 162.142 294.36 163.992C294.792 165.842 295.634 167.571 296.825 169.051C298.015 170.531 299.523 171.725 301.237 172.544C302.951 173.363 304.827 173.786 306.727 173.782C306.067 177.466 306.519 181.262 308.027 184.688C309.535 188.113 312.028 191.012 315.191 193.013C317.394 194.316 320.199 195.468 320.8 198.022C321.094 199.719 320.867 201.465 320.149 203.03C312.527 222.253 306.97 242.231 303.571 262.629C301.067 281.56 301.418 305.85 312.236 322.428C327.11 301.243 353.855 294.832 356.609 266.185C358.012 251.961 355.057 236.836 358.012 222.813C361.718 205.634 379.697 207.187 385.156 193.264V193.464Z" fill="#FDE7DE"/>
<path d="M536.407 499.971C536.923 496.575 537.091 493.135 536.908 489.705C528.093 492.359 517.576 493.861 514.621 481.842C511.666 469.822 516.324 461.808 525.389 462.51C534.454 463.211 537.158 462.51 542.267 469.872C546.474 460.556 572.917 445.581 584.186 449.839C585.388 436.316 593.702 431.458 601.815 433.411C609.929 435.365 617.742 441.725 615.288 450.79C612.833 459.855 608.977 461.508 608.977 461.508C616.79 471.024 624.403 487.701 620.246 503.377C633.718 509.738 635.271 517.851 633.217 522.008C629.868 526.153 625.284 529.121 620.132 530.481C614.98 531.841 609.528 531.522 604.57 529.571C591.598 523.711 593.051 520.506 593.051 520.506L566.607 517.35C563.442 521.466 559.004 524.419 553.986 525.75C548.968 527.082 543.65 526.717 538.861 524.712C520.981 518.102 527.342 501.224 536.407 499.971Z" fill="#CAE1F6"/>
<path d="M684.952 299.039C678.316 286.773 668.983 276.173 657.656 268.038C646.233 259.379 633.785 252.163 620.595 246.552C613.741 243.4 606.639 240.82 599.36 238.839C598.799 244.009 597.861 249.131 596.555 254.165C602.848 255.525 609.014 257.418 614.986 259.824C626.997 264.56 638.424 270.66 649.042 278.004C659.332 285.258 668.611 293.847 676.638 303.546C685.328 313.105 691.264 324.839 693.816 337.503C693.816 337.803 694.417 337.753 694.367 337.503C693.971 324.194 690.762 311.119 684.952 299.139V299.039Z" fill="white"/>
<path d="M536.257 501.574C527.893 506.232 525.339 520.205 535.856 524.011C535.856 524.011 536.156 524.011 535.856 523.761C529.145 518.302 535.305 511.29 541.415 509.237C545.923 507.734 559.044 507.384 560.647 513.093C561.548 516.449 565.655 515.347 566.256 512.342C568.159 497.918 544.62 496.866 536.207 501.624L536.257 501.574Z" fill="white"/>
<path d="M543.318 475.231C542.945 472.456 541.824 469.836 540.075 467.651C538.326 465.465 536.016 463.797 533.391 462.824C530.766 461.851 527.926 461.611 525.176 462.129C522.425 462.647 519.867 463.904 517.776 465.765C516.079 467.446 514.84 469.533 514.176 471.828C513.512 474.123 513.445 476.549 513.982 478.877C514.519 481.205 515.642 483.357 517.243 485.129C518.845 486.901 520.873 488.235 523.135 489.003C523.135 489.003 523.135 489.003 523.135 488.753C521.439 487.98 519.992 486.748 518.957 485.197C517.923 483.646 517.341 481.838 517.279 479.974C517.216 478.111 517.675 476.267 518.604 474.651C519.532 473.034 520.893 471.708 522.534 470.823C528.844 467.618 533.101 471.825 535.455 477.334C535.935 478.095 536.647 478.682 537.486 479.009C538.324 479.336 539.245 479.386 540.114 479.15C540.982 478.915 541.753 478.407 542.312 477.702C542.87 476.996 543.188 476.13 543.218 475.231H543.318Z" fill="white"/>
<path d="M597.959 455.999C590.611 452.657 582.504 451.336 574.475 452.173C566.446 453.009 558.785 455.972 552.283 460.757C541.415 469.17 534.654 484.796 540.264 498.219C540.294 498.307 540.352 498.384 540.428 498.438C540.504 498.492 540.596 498.521 540.689 498.521C540.783 498.521 540.874 498.492 540.95 498.438C541.027 498.384 541.084 498.307 541.115 498.219C541.55 492.141 543.348 486.24 546.373 480.952C549.399 475.663 553.576 471.123 558.594 467.668C570.02 460.863 583.541 458.476 596.607 460.957C597.264 461.136 597.966 461.047 598.558 460.709C599.15 460.371 599.583 459.811 599.762 459.154C599.941 458.496 599.852 457.795 599.514 457.203C599.176 456.611 598.616 456.178 597.959 455.999Z" fill="white"/>
<path d="M593.15 434.112C589.526 436.412 586.893 439.985 585.772 444.129C584.65 448.272 585.121 452.685 587.09 456.499C587.225 456.724 587.421 456.905 587.656 457.02C587.892 457.135 588.155 457.179 588.415 457.147C588.675 457.116 588.92 457.009 589.12 456.841C589.321 456.672 589.468 456.449 589.544 456.199C590.262 450.782 593.065 445.859 597.357 442.476C601.364 440.172 605.02 442.476 609.026 442.927C609.748 442.914 610.436 442.618 610.942 442.103C611.448 441.588 611.731 440.894 611.731 440.172C611.831 430.957 598.709 430.957 593.15 434.112Z" fill="white"/>
<path d="M558.193 569.837L564.503 569.487C567.508 568.785 570.513 568.134 573.518 567.633C581.381 566.181 589.444 565.53 597.358 564.128C605.271 562.725 613.785 561.023 621.948 559.119C636.519 555.678 650.896 551.465 665.02 546.499H664.268C648.222 546.399 632.184 547.252 616.239 549.053C600.262 550.355 584.236 551.958 568.209 552.959C537.586 554.278 506.947 550.779 477.409 542.592C447.359 534.979 417.31 526.866 387.811 516.9C360.265 507.534 332.72 496.566 304.673 489.554C273.308 480.834 240.701 477.448 208.214 479.538C207.992 479.588 207.795 479.712 207.653 479.89C207.511 480.067 207.434 480.287 207.434 480.514C207.434 480.741 207.511 480.962 207.653 481.139C207.795 481.316 207.992 481.44 208.214 481.491C237.544 482.99 266.458 489.074 293.905 499.521C321.751 509.537 348.996 520.455 376.893 530.422C406.091 540.889 435.89 549.103 465.89 556.866C495.89 564.628 526.741 570.939 558.143 569.537L558.193 569.837Z" fill="white"/>
<path d="M366.375 299.84C360.158 297.463 353.457 296.626 346.846 297.402C340.235 298.179 333.91 300.544 328.412 304.298C322.298 308.174 317.28 313.554 313.838 319.923C310.082 328.087 316.543 336.2 320.149 343.212C320.403 343.648 320.688 344.067 321 344.464C317.582 347.089 314.444 350.06 311.635 353.329C304.931 361.154 298.899 369.53 293.605 378.37C288.492 386.827 283.942 395.61 279.982 404.664C277.727 409.628 275.836 414.75 274.323 419.989C273.455 422.808 272.9 425.713 272.67 428.653C272.79 431.492 273.597 434.259 275.024 436.717C275.561 437.62 276.323 438.368 277.237 438.887C278.15 439.406 279.182 439.679 280.233 439.679C281.283 439.679 282.316 439.406 283.229 438.887C284.142 438.368 284.904 437.62 285.441 436.717C287.439 432.469 288.918 427.996 289.849 423.395C291.199 418.727 292.873 414.158 294.857 409.722C298.668 401.207 303.017 392.943 307.878 384.981C312.586 377.268 317.895 369.956 323.254 362.544C326.058 358.738 328.763 354.881 331.217 350.825C333.818 347.651 335.545 343.853 336.225 339.806C336.225 339.248 336.004 338.713 335.609 338.319C335.215 337.924 334.68 337.703 334.122 337.703C333.786 336.128 332.853 334.746 331.518 333.846C329.801 331.204 328.342 328.403 327.16 325.483C329.614 318.671 337.527 312.711 343.087 309.055C350.145 304.471 358.134 301.512 366.475 300.391C366.475 300.391 366.525 299.89 366.375 299.84Z" fill="white"/>
<path d="M483.77 344.815C483.535 344.757 483.289 344.769 483.061 344.849C482.834 344.928 482.633 345.072 482.485 345.262C482.337 345.453 482.247 345.682 482.226 345.923C482.205 346.163 482.254 346.404 482.367 346.618C489.379 359.038 486.424 374.564 484.12 388.487C483.082 389.594 482.392 390.981 482.133 392.476C481.875 393.972 482.061 395.51 482.668 396.901L484.12 400.256C487.125 407.168 497.442 404.513 499.145 398.303C504.153 382.176 503.102 351.375 483.619 344.815H483.77Z" fill="white"/>
<path d="M442.652 473.327C443.968 471.859 445.003 470.161 445.707 468.319C447.159 465.765 448.662 463.311 449.864 460.606C452.318 454.997 454.321 449.087 456.274 443.228C459.43 433.712 462.935 423.846 465.439 413.979C465.024 405.527 463.335 397.186 460.431 389.238C460.081 388.186 458.278 387.936 458.077 389.238C455.409 402.172 451.964 414.933 447.76 427.451C444.007 440.231 438.095 452.274 430.281 463.06C425.573 469.621 434.088 478.085 440.799 475.18C441.25 474.379 441.844 473.666 442.552 473.077L442.652 473.327Z" fill="white"/>
<path d="M443.704 343.062C428.679 353.078 409.747 358.437 394.622 347.72C391.438 346.756 388.491 345.134 385.972 342.96C383.453 340.786 381.418 338.108 379.998 335.099C377.944 328.628 377.463 321.76 378.596 315.066C377.544 313.663 376.593 312.161 375.641 310.658C371.569 313.927 368.478 318.257 366.711 323.17C364.943 328.084 364.567 333.391 365.624 338.504C367.294 343.741 370.145 348.525 373.957 352.485C377.769 356.445 382.441 359.475 387.611 361.342C406.893 369.355 434.739 366.35 450.565 352.027C451.871 350.883 452.7 349.291 452.885 347.565C453.071 345.839 452.6 344.106 451.567 342.711C449.012 342.711 446.558 342.711 443.954 343.012L443.704 343.062Z" fill="white"/>
<path d="M418.662 457.852C403.637 451.291 388.612 444.73 373.036 439.421C357.765 434.048 342.112 429.829 326.209 426.8C318.434 425.415 310.595 424.429 302.72 423.846C295.708 423.169 288.647 423.169 281.635 423.846C280.533 423.846 279.381 424.146 278.279 424.346C277.177 424.547 276.777 427.151 278.279 427.552C290.349 430.807 302.92 432.059 315.04 435.415C327.16 438.77 340.081 443.027 352.001 447.585C363.921 452.142 375.64 457 387.059 462.059C392.919 464.613 398.729 467.067 404.588 469.872L413.303 473.778L418.311 475.932L419.914 476.683C420.821 478.18 422.166 479.364 423.766 480.074C425.367 480.783 427.147 480.986 428.866 480.653C430.585 480.32 432.161 479.468 433.381 478.212C434.601 476.956 435.407 475.356 435.69 473.628C437.142 463.862 425.673 461.057 418.712 458.052L418.662 457.852Z" fill="white"/>
<path d="M334.523 196.97C331.259 196.604 328.222 195.123 325.923 192.779C323.624 190.434 322.204 187.368 321.902 184.099C321.301 179.09 321.601 171.428 315.541 169.474C314.645 169.229 313.687 169.349 312.879 169.81C312.072 170.27 311.48 171.032 311.234 171.928C311.33 175.81 311.919 179.664 312.987 183.397C313.182 187.535 314.517 191.539 316.843 194.967C317.82 196.135 318.968 197.148 320.249 197.972C319.943 198.092 319.665 198.275 319.433 198.507C319.2 198.74 319.018 199.018 318.897 199.324C310.566 216.74 304.91 235.312 302.119 254.415C300.693 263.748 300.49 273.227 301.518 282.612C302.57 292.027 303.972 302.645 309.832 310.608C310.198 311.186 310.74 311.631 311.378 311.879C312.016 312.126 312.717 312.163 313.377 311.984C314.038 311.805 314.623 311.419 315.049 310.883C315.474 310.347 315.717 309.689 315.741 309.005C315.54 300.142 314.585 291.313 312.887 282.612C311.918 273.663 311.449 264.668 311.484 255.667C311.454 237.144 315.777 218.874 324.105 202.329C324.351 201.893 324.48 201.402 324.48 200.901C324.48 200.401 324.351 199.91 324.105 199.474C325.919 199.878 327.798 199.895 329.619 199.524C331.439 199.153 333.162 198.402 334.673 197.32L334.523 196.97Z" fill="white"/>
<path d="M307.43 152.046C305.941 151.724 304.387 151.903 303.011 152.555C301.634 153.207 300.511 154.296 299.817 155.652C299.289 156.54 298.945 157.526 298.807 158.55C298.67 159.574 298.741 160.615 299.016 161.612C299.094 162.326 299.245 163.031 299.467 163.715C299.681 164.411 300.112 165.021 300.698 165.454C301.284 165.887 301.993 166.12 302.722 166.12C303.45 166.12 304.16 165.887 304.746 165.454C305.332 165.021 305.763 164.411 305.977 163.715L306.478 163.264C307.016 162.971 307.52 162.618 307.981 162.213L308.882 161.612C309.791 160.772 310.449 159.697 310.785 158.506C310.967 157.865 311.018 157.194 310.937 156.533C310.856 155.871 310.644 155.232 310.313 154.654C309.981 154.076 309.538 153.569 309.009 153.164C308.479 152.759 307.874 152.464 307.229 152.296L307.43 152.046Z" fill="white"/>
<path d="M412.151 142.229C404.895 151.948 399.977 163.207 397.777 175.134C396.826 180.993 397.777 186.903 396.826 192.763C395.919 198.621 393.674 204.191 390.265 209.04C390.265 209.04 390.265 209.541 390.666 209.34C398.796 202.156 404.251 192.428 406.141 181.745C408.488 169.296 412.621 157.252 418.411 145.986C418.91 145.155 419.057 144.161 418.823 143.222C418.588 142.283 417.99 141.475 417.159 140.977C416.329 140.479 415.335 140.331 414.396 140.566C413.457 140.801 412.649 141.399 412.151 142.229Z" fill="white"/>
<path d="M475.055 122.998C462.935 120.544 450.365 114.434 439.096 119.342C435.399 121.205 432.019 123.639 429.079 126.554L428.178 127.355C425.794 131.123 423.94 135.201 422.669 139.475C418.712 152.547 416.909 165.869 422.669 178.64C422.669 178.64 423.119 178.64 423.069 178.64C420.565 166.169 428.078 153.348 434.088 142.931C436.335 138.609 439.318 134.711 442.902 131.412C447.353 128.262 452.515 126.266 457.927 125.602C463.607 124.5 469.341 123.697 475.105 123.198L475.055 122.998Z" fill="white"/>
<path d="M630.311 520.956C628.703 523.169 626.521 524.901 624.001 525.964C620.757 527.418 617.238 528.153 613.684 528.118C609.093 528.207 604.58 526.935 600.712 524.462C599.241 523.504 597.994 522.24 597.056 520.756C596.259 519.514 595.826 518.074 595.804 516.599C595.838 515.126 596.271 513.689 597.056 512.442C598.633 510.199 600.824 508.46 603.366 507.434C606.61 505.98 610.129 505.246 613.684 505.28C618.274 505.191 622.787 506.463 626.655 508.936C628.101 509.905 629.343 511.147 630.311 512.592C631.081 513.844 631.496 515.28 631.513 516.749C631.518 518.237 631.102 519.696 630.311 520.956ZM593.049 510.188C591.788 512.164 591.11 514.455 591.096 516.799L582.732 515.798C580.228 515.497 577.724 515.046 575.07 514.696L571.213 514.145L569.961 513.895C570.037 513.246 570.037 512.59 569.961 511.941C569.952 509.597 569.275 507.303 568.008 505.33C565.984 502.228 563.093 499.79 559.694 498.319C553.284 495.452 546.072 494.92 539.31 496.816C539.098 495.155 538.998 493.482 539.01 491.808C538.96 490.957 538.96 490.104 539.01 489.254C539.038 488.768 538.932 488.283 538.703 487.854C538.474 487.424 538.132 487.065 537.713 486.817C537.294 486.569 536.815 486.441 536.329 486.447C535.842 486.452 535.366 486.592 534.953 486.85C532.935 488.192 530.565 488.906 528.142 488.903H526.74C523.627 488.574 520.75 487.091 518.676 484.746C516.797 482.425 515.787 479.519 515.822 476.533C515.797 476.066 515.797 475.597 515.822 475.13C516.151 472.017 517.634 469.141 519.978 467.067C522.298 465.046 525.266 463.926 528.342 463.912H529.845C532.026 464.199 534.095 465.046 535.851 466.372C537.606 467.697 538.988 469.455 539.861 471.474C540.062 471.916 540.377 472.297 540.773 472.579C541.168 472.86 541.631 473.032 542.115 473.077C542.596 473.098 543.074 472.989 543.498 472.759C543.921 472.53 544.274 472.19 544.519 471.775C548.024 465.705 553.059 460.66 559.123 457.145C565.187 453.629 572.067 451.766 579.076 451.742C580.529 451.742 582.031 451.742 583.534 451.992H584.736C585.132 452.042 585.534 452.005 585.915 451.884C586.295 451.763 586.645 451.56 586.939 451.291C587.218 451.002 587.426 450.653 587.548 450.271C587.669 449.889 587.701 449.484 587.64 449.087C587.64 448.486 587.64 447.885 587.64 447.284C587.591 446.852 587.591 446.415 587.64 445.982C587.964 442.893 589.428 440.035 591.747 437.969C594.067 435.91 597.06 434.771 600.161 434.764H601.563C604.652 435.127 607.501 436.605 609.577 438.92C611.643 441.236 612.784 444.231 612.782 447.334C612.806 447.801 612.806 448.27 612.782 448.737C612.563 450.653 611.907 452.494 610.865 454.118C609.823 455.741 608.423 457.104 606.772 458.102C606.433 458.311 606.148 458.597 605.94 458.936C605.731 459.275 605.604 459.659 605.57 460.055C605.522 460.452 605.57 460.855 605.709 461.23C605.849 461.604 606.076 461.94 606.371 462.209C610.412 465.956 613.636 470.497 615.842 475.546C618.048 480.596 619.189 486.047 619.193 491.558C619.25 493.23 619.183 494.904 618.992 496.566C618.84 498.014 618.606 499.452 618.291 500.873C616.748 500.653 615.192 500.536 613.633 500.522C608.089 500.415 602.643 501.986 598.008 505.03C596.001 506.324 594.293 508.031 592.999 510.038L593.049 510.188ZM564.202 516.298C562.623 518.539 560.432 520.278 557.891 521.307C554.744 522.73 551.329 523.464 547.875 523.46C543.285 523.55 538.771 522.278 534.903 519.804C533.432 518.846 532.185 517.582 531.247 516.098C530.429 514.866 529.992 513.42 529.992 511.941C529.992 510.462 530.429 509.016 531.247 507.784C532.826 505.544 535.017 503.805 537.558 502.776C540.786 501.335 544.29 500.617 547.825 500.673C552.406 500.592 556.913 501.845 560.796 504.279C562.256 505.25 563.501 506.511 564.452 507.985C565.27 509.217 565.707 510.663 565.707 512.142C565.707 513.621 565.27 515.067 564.452 516.298H564.202ZM641.83 319.172C642.779 319.905 643.558 320.836 644.111 321.899C644.665 322.963 644.98 324.135 645.035 325.332C645.015 325.731 644.875 326.115 644.635 326.434C643.157 326.934 641.555 326.934 640.077 326.434C637.874 322.378 639.977 323.079 641.83 319.172ZM527.641 504.479C519.628 502.242 511.598 499.738 503.551 496.966C484.62 490.556 465.488 482.793 445.906 474.479C447.408 471.625 448.71 468.72 449.963 465.765C454.67 455.748 458.126 445.281 461.582 436.116C465.037 426.951 468.243 418.537 470.697 409.672C471.999 404.964 475.254 407.118 479.762 406.968C484.269 406.817 489.778 406.968 494.787 406.316C515.231 404.331 534.898 397.46 552.132 386.283C568.357 377.123 582.905 365.267 595.153 351.225C612.582 358.137 625.203 344.214 633.817 331.192C640.528 337.202 653.85 333.095 651.346 322.828C650.717 320.372 649.476 318.115 647.74 316.267C644.234 312.361 644.334 313.012 643.533 307.753C643.058 304.351 641.655 301.145 639.476 298.488C638.925 297.837 633.566 293.78 633.867 295.683C632.977 293.954 631.724 292.436 630.194 291.235C628.665 290.034 626.894 289.176 625.002 288.722C623.343 288.465 621.654 288.465 619.994 288.722C617.34 284.415 609.977 282.812 606.922 286.318C603.142 282.807 598.43 280.459 593.35 279.557C601.571 268.94 606.483 256.137 607.473 242.746C610.628 244.098 613.684 245.6 616.739 247.153C625.155 251.355 633.286 256.107 641.079 261.377L645.737 264.732C650.194 268.138 654.601 271.644 658.908 275.149C661.012 276.852 663.065 278.605 665.069 280.408C674.396 288.661 682.284 298.411 688.407 309.256C688.958 310.257 690.661 309.606 690.26 308.505C688.657 303.741 686.594 299.145 684.1 294.782C685.903 295.383 687.756 295.984 689.459 296.635C696.379 299.03 703.081 302.012 709.492 305.55C712.096 307.102 711.996 306.401 712.096 308.805C711.95 310.507 711.614 312.186 711.095 313.813C710.243 317.77 709.192 321.726 707.99 325.583C705.211 334.435 701.951 343.129 698.223 351.626C692.414 364.981 685.987 377.986 678.942 390.64C669.262 405.921 658.762 420.667 647.489 434.814C638.295 446.51 628.411 457.648 617.89 468.169C616.296 465.62 614.45 463.238 612.381 461.057C615.652 458.147 617.737 454.137 618.241 449.788C618.241 449.087 618.241 448.436 618.241 447.785C618.243 443.393 616.624 439.156 613.694 435.884C610.764 432.612 606.73 430.537 602.365 430.056H600.361C595.978 430.066 591.753 431.691 588.492 434.62C585.23 437.548 583.162 441.575 582.682 445.932C582.657 446.299 582.657 446.667 582.682 447.034C581.58 447.034 580.428 447.034 579.327 447.034C572.155 447.037 565.087 448.752 558.711 452.036C552.334 455.32 546.834 460.078 542.666 465.915C541.213 464.017 539.389 462.435 537.306 461.264C535.222 460.093 532.922 459.358 530.546 459.104C529.879 459.052 529.209 459.052 528.543 459.104C524.16 459.114 519.934 460.739 516.673 463.668C513.412 466.596 511.344 470.623 510.863 474.98C510.814 475.647 510.814 476.317 510.863 476.983C510.87 481.351 512.494 485.561 515.421 488.803C518.322 492.111 522.364 494.204 526.74 494.663H528.743C530.631 494.644 532.505 494.34 534.302 493.761C534.37 495.522 534.537 497.278 534.803 499.02C533.918 499.461 533.064 499.963 532.249 500.522C530.564 501.641 529.089 503.049 527.892 504.679L527.641 504.479ZM437.041 470.723C414.354 461.007 391.967 451.391 369.68 443.728C358.461 439.872 347.293 436.566 336.124 433.712L331.967 432.71L327.76 431.859L323.503 431.458L319.346 430.707C316.592 430.256 313.837 429.705 311.083 429.405L306.976 428.854L304.923 428.553H303.771H302.769C300.064 428.553 297.761 428.002 294.756 427.852L286.542 427.451H278.529H274.973C278.571 418.221 282.77 409.237 287.544 400.557C294.511 388.161 302.379 376.293 311.083 365.048C316.735 358.556 321.86 351.622 326.408 344.314C326.82 343.543 327.036 342.683 327.036 341.81C327.036 340.936 326.82 340.076 326.408 339.306C325.907 335.85 321.4 332.094 319.947 329.289C314.939 320.174 321.45 311.96 329.964 307.303C334.974 304.42 340.421 302.373 346.091 301.243C349.312 300.637 352.579 300.302 355.857 300.241C362.368 300.241 362.718 301.092 365.573 306.451C367.526 310.057 374.287 316.868 374.538 320.625C374.938 326.835 373.135 330.341 376.641 336.05C380.072 341.479 384.654 346.087 390.063 349.549C395.472 353.011 401.576 355.242 407.943 356.083C421.616 358.587 432.984 354.38 445.405 349.773C450.413 347.92 456.774 349.472 462.333 348.821C469.477 347.819 476.725 347.819 483.869 348.821C498.894 351.376 495.838 388.537 490.93 398.904C483.733 399.695 476.452 398.679 469.745 395.949C467.391 394.948 466.54 392.794 463.635 393.195C462.959 393.22 462.3 393.41 461.714 393.748C461.128 394.086 460.634 394.562 460.274 395.135C459.914 395.707 459.699 396.359 459.647 397.033C459.596 397.707 459.71 398.384 459.979 399.004C461.682 402.71 464.086 402.31 462.784 406.517C461.231 411.525 460.029 416.533 458.427 421.542C455.021 432.259 451.365 442.977 447.358 453.444C447.358 454.146 446.807 454.797 446.557 455.448C444.008 460.799 441.096 465.969 437.843 470.923L437.041 470.573V470.723ZM240.566 431.007L235.958 432.059C223.588 425.849 214.773 417.435 215.925 413.679C216.576 411.375 218.83 410.774 220.933 409.522C223.364 407.987 225.705 406.315 227.945 404.513C232.415 401.07 236.422 397.064 239.865 392.594C242.232 388.6 243.701 384.14 244.172 379.522C245.725 372.711 247.578 366 249.681 359.489C261.507 323.192 278.673 288.859 300.615 257.62C300.382 259.323 300.081 260.993 299.714 262.629C294.706 289.874 303.771 315.917 316.442 339.606L315.69 340.708C314.338 342.461 313.086 344.264 311.784 346.017C308.428 350.574 305.023 355.132 301.767 359.789C292.846 372.124 285.321 385.411 279.33 399.405C275.391 408.528 272.045 417.897 269.314 427.451C259.773 428.021 250.284 429.26 240.917 431.158L240.566 431.007ZM306.425 256.919C307.608 247.216 309.55 237.621 312.235 228.222C315.599 219.031 318.146 209.563 319.847 199.925C321.5 200.426 332.769 201.978 333.32 199.574C333.32 198.623 321.35 196.169 319.747 194.566C316.025 190.665 313.685 185.651 313.086 180.292C312.185 174.733 313.837 170.276 307.326 169.875C305.162 169.617 303.169 168.57 301.728 166.934C300.286 165.299 299.498 163.19 299.514 161.01C299.514 157.455 302.519 150.994 307.026 153.698C313.837 157.455 303.62 161.161 306.225 165.117C309.771 166.963 313.518 168.391 317.393 169.374C322.852 168.573 329.062 170.626 330.765 162.713C335.774 166.369 344.388 167.221 345.49 160.86C345.578 158.312 346.183 155.809 347.268 153.502C348.353 151.194 349.894 149.132 351.8 147.438C356.508 142.931 363.469 141.628 363.62 144.483C363.92 150.643 358.611 151.445 357.009 154.8C355.406 158.156 357.309 158.807 353.703 160.71C352.603 161.235 351.62 161.976 350.812 162.887C350.003 163.799 349.385 164.864 348.995 166.019C347.994 169.324 350.798 169.424 346.692 170.376C344.288 170.977 341.683 171.628 339.53 172.379C337.376 173.13 325.757 177.037 326.558 179.341C326.959 180.643 344.638 176.987 346.992 176.787C344.688 177.838 340.832 179.641 340.131 182.296C339.83 183.347 338.678 187.304 340.932 187.304C343.186 187.304 344.889 184.65 346.591 184.099C349.87 183.291 353.232 182.87 356.608 182.847C363.419 182.546 367.025 178.99 360.665 174.032C358.361 172.179 351.85 165.418 359.413 165.668C368.878 165.668 385.205 182.596 380.898 192.062C378.028 197.708 373.124 202.057 367.176 204.232C363.369 204.703 359.602 205.456 355.907 206.486C352.201 208.289 358.01 211.494 359.513 211.995C356.413 216.824 354.492 222.313 353.904 228.021C352.852 235.484 352.301 243.046 351.399 250.408C350.366 265.934 353.368 281.462 360.114 295.483C343.136 293.38 323.553 298.438 312.986 312.661C306.772 294.865 304.483 275.934 306.275 257.17L306.425 256.919ZM318.194 157.905C321.45 155.902 326.358 156.102 325.657 160.86C324.605 167.621 312.585 161.261 318.194 157.905ZM333.82 151.395C336.825 152.246 340.331 155.201 339.63 158.757C336.425 159.107 333.47 154.4 330.565 157.204C329.971 155.247 328.643 153.596 326.859 152.597C327.809 151.798 328.954 151.266 330.177 151.055C331.4 150.844 332.657 150.961 333.82 151.395ZM385.706 168.773C388.973 165.456 391.395 161.403 392.768 156.954C394.17 153.698 395.322 150.293 396.925 146.937C398.027 144.784 397.726 143.932 399.93 143.682C401.845 143.647 403.745 144.041 405.489 144.834C394.371 158.356 394.07 174.533 392.067 191.311C391.065 199.674 383.402 205.434 377.042 210.192C370.015 215.347 363.904 221.645 358.962 228.823C359.828 221.697 363.417 215.182 368.979 210.643C375.846 206.925 381.549 201.378 385.456 194.616C386.875 190.792 387.158 186.638 386.269 182.657C385.38 178.676 383.359 175.037 380.448 172.179C382.401 171.027 384.104 170.025 385.706 168.773ZM380.397 329.039C385.773 335.233 392.533 340.072 400.13 343.162C408.825 347.372 418.319 349.677 427.976 349.923C422.667 353.078 412.2 353.229 401.532 350.224C384.905 345.315 379.696 332.895 380.397 328.888V329.039ZM635.82 303.446C636.874 305.103 637.554 306.969 637.813 308.915C638.073 310.861 637.905 312.84 637.323 314.715C636.621 317.269 632.314 323.63 629.009 319.723C631.913 314.556 634.136 309.034 635.62 303.296L635.82 303.446ZM624.001 295.183C635.92 298.338 626.204 316.368 616.789 316.267C617.74 314.915 618.642 313.513 619.493 312.111C622.663 307.049 624.234 301.15 624.001 295.183ZM610.328 292.528C610.282 292.132 610.18 291.744 610.027 291.376C613.233 290.274 614.184 294.331 615.036 296.785C615.767 298.908 616.057 301.157 615.887 303.396C614.685 308.404 610.478 312.06 608.976 316.868C608.794 314.279 608.088 311.754 606.9 309.447C605.712 307.139 604.067 305.098 602.064 303.446C603.396 303.461 604.713 303.164 605.908 302.577C607.104 301.991 608.146 301.133 608.949 300.071C609.753 299.009 610.296 297.774 610.536 296.464C610.775 295.154 610.704 293.806 610.328 292.528ZM533.15 339.055C544.419 333.346 560.245 331.292 568.208 320.474C574.919 311.259 565.554 299.039 576.171 291.627C582.081 287.47 587.14 284.715 594.402 286.919C598.659 288.221 605.72 290.825 603.717 296.585C603.216 298.087 591.797 294.932 589.844 300.391C587.44 307.052 597.657 309.156 600.512 313.413C603.526 318.614 605.083 324.53 605.019 330.541C605.019 333.045 608.475 329.84 608.625 328.938C608.943 325.995 609.06 323.033 608.976 320.074C610.278 323.479 615.687 323.029 618.542 322.728C622.198 322.327 624.852 327.436 629.91 327.486C626.983 331.383 623.857 335.128 620.545 338.705C617.225 342.082 612.755 344.085 608.024 344.314C605.337 344.922 602.529 344.712 599.961 343.713C597.507 342.411 595.954 339.456 592.849 339.706C592.062 339.674 591.281 339.855 590.588 340.232C589.896 340.608 589.319 341.165 588.918 341.843C588.517 342.521 588.308 343.296 588.312 344.083C588.317 344.871 588.534 345.643 588.943 346.317C583.934 351.325 578.926 357.035 573.918 362.243C554.331 382.446 528.277 395.136 500.296 398.103C504.533 382.205 502.526 365.289 494.687 350.825C507.928 349.016 520.765 344.968 532.649 338.855L533.15 339.055ZM772.296 490.656L768.44 491.858L763.882 493.26C760.577 494.312 756.82 495.564 752.463 496.816L745.652 498.87L738.089 500.923C735.435 501.674 732.68 502.426 729.826 503.127L720.861 505.38C708.49 508.385 694.267 511.34 678.441 513.794C664.42 516.003 650.294 517.491 636.121 518.252C636.145 517.768 636.145 517.283 636.121 516.799C636.105 514.463 635.447 512.175 634.218 510.188C632.161 507.096 629.257 504.662 625.854 503.177C625.052 502.826 624.201 502.476 623.299 502.175C623.65 500.572 623.951 498.92 624.151 497.167C624.351 495.414 624.401 493.761 624.401 492.158C624.421 488.791 624.068 485.432 623.35 482.142C627.306 477.134 631.213 472.576 634.969 467.668C662.042 433.461 684.832 396.072 702.831 356.334C709.739 341.783 714.787 326.42 717.856 310.608C718.457 307.002 719.058 305.199 716.003 302.795C711.303 299.448 706.162 296.769 700.728 294.832C694.868 292.378 688.908 290.324 682.998 287.971C680.015 286.363 677.35 284.225 675.135 281.66L673.533 280.208C664.882 270.304 655.118 261.431 644.434 253.764C635.74 247.452 626.525 241.89 616.889 237.136L610.979 234.131L608.074 232.278C608.042 228.541 607.757 224.809 607.223 221.11C603.267 199.2 594.056 178.577 580.378 161.01C567.908 144.032 553.834 129.558 534.052 121.445C514.269 113.332 490.73 108.173 470.446 114.433C475.302 113.416 480.315 113.416 485.171 114.433C491.581 115.335 498.092 117.038 503 118.139C515.655 120.712 527.891 125.027 539.361 130.961C561.297 142.78 577.674 167.722 587.34 190.008C588.914 193.624 590.302 197.319 591.497 201.077C592.917 205.763 593.742 210.609 593.951 215.501C594.137 226.059 592.958 236.596 590.445 246.853C588.489 256.17 585.289 265.183 580.929 273.647C578.682 277.544 575.957 281.144 572.816 284.365C570.897 285.549 569.117 286.943 567.507 288.521C564.121 291.723 562.141 296.134 561.998 300.792C561.584 300.718 561.16 300.718 560.746 300.792C557.515 301.856 554.381 303.196 551.38 304.798C550.995 305.003 550.627 305.237 550.279 305.5C548.681 301.955 546.341 298.796 543.417 296.234C541.059 293.937 537.941 292.583 534.653 292.428C533.551 292.428 527.19 295.032 528.342 296.885C530.491 296.686 532.654 296.686 534.803 296.885C537.208 298.238 539.173 300.255 540.462 302.695C544.269 308.755 547.023 316.267 543.167 323.029C536.906 333.796 516.523 334.498 507.458 327.486C503.351 324.281 498.443 320.775 495.488 327.786C493.885 331.493 496.99 332.044 492.833 334.197C489.385 336.002 485.781 337.494 482.066 338.654C474.804 340.908 465.839 339.506 458.226 340.558C452.215 341.289 446.126 341.035 440.196 339.806C438.745 339.291 437.227 338.987 435.689 338.905L429.529 337.452C414.504 333.847 401.232 330.441 389.462 319.523C384.855 315.266 384.104 309.206 381.499 303.647C380.498 301.543 378.544 296.735 375.389 297.286C371.082 298.087 368.628 289.273 367.476 286.618C360.615 270.992 353.904 251.56 364.671 235.884C366.992 232.151 370.17 229.027 373.942 226.771C377.714 224.514 381.971 223.192 386.357 222.913L399.579 229.424C399.749 229.697 399.899 229.981 400.03 230.275C399.679 231.477 399.429 232.729 399.179 233.931C398.928 235.133 398.477 237.687 398.177 239.54C396.562 240.157 395.07 241.056 393.77 242.195C389.663 247.203 397.526 248.956 400.931 247.203C407.793 244.198 404.738 235.985 407.192 230.125C409.646 224.265 416.357 225.617 421.015 227.971C423.519 229.273 430.23 238.639 431.482 238.639C435.889 238.639 426.874 225.718 425.973 224.816C423.864 222.706 421.302 221.104 418.482 220.132C415.662 219.16 412.657 218.844 409.696 219.207C391.265 215.15 396.224 206.436 396.224 205.835C398.45 203.002 400.039 199.722 400.881 196.219C401.021 194.552 401.021 192.877 400.881 191.21C399.494 187.022 398.734 182.65 398.628 178.239C399.049 164.197 405.008 150.891 415.205 141.228C415.666 140.784 416.151 140.366 416.657 139.976V140.476C414.403 150.047 414.558 160.028 417.108 169.525C417.108 168.773 418.561 161.561 418.811 159.508C419.512 154.074 420.617 148.701 422.116 143.431C424.671 134.867 430.33 129.859 435.689 123.148C436.389 122.387 436.873 121.453 437.091 120.443C437.091 118.941 436.04 118.24 433.285 119.141C429.255 120.687 425.771 123.387 423.268 126.904C421.21 129.676 419.526 132.707 418.26 135.919C415.68 136.691 413.255 137.912 411.098 139.525C409.596 138.924 408.093 138.373 406.541 137.922C403.84 136.911 400.955 136.484 398.077 136.67C393.77 137.271 392.067 141.128 390.364 144.784C388.481 150.096 386.221 155.268 383.603 160.259C381.459 163.119 378.748 165.506 375.64 167.271C371.785 164.016 367.35 161.518 362.568 159.909C364.872 154.5 374.788 143.081 366.324 138.673C356.858 133.665 346.591 143.682 342.585 151.294C340.634 149.098 338.054 147.555 335.196 146.874C332.338 146.193 329.34 146.407 326.608 147.488C325.183 148.749 323.845 150.104 322.602 151.545C319.732 151.575 316.959 152.582 314.739 154.399C311.433 141.979 296.008 148.239 294.706 158.356C293.962 161.915 294.656 165.623 296.636 168.672C298.615 171.721 301.72 173.864 305.273 174.633C309.129 175.585 308.028 179.942 308.929 183.698C309.795 189.427 312.693 194.653 317.093 198.422C313.353 204.388 310.644 210.94 309.079 217.804C306.726 225.918 304.973 234.131 303.42 242.395C295.134 253.446 287.444 264.932 280.382 276.802C265.722 301.132 253.733 326.975 244.623 353.88C242.619 359.94 240.766 366.1 239.214 372.36C238.595 377.889 237.143 383.293 234.907 388.387C231.704 392.8 227.815 396.672 223.388 399.856C219.481 402.961 213.371 404.864 210.817 409.371C206.71 416.283 212.72 424.997 217.027 430.156C218.765 432.152 220.621 434.042 222.586 435.815C196.729 443.367 172.811 456.419 152.47 474.079C149.966 476.232 147.462 478.436 145.459 480.589L138.898 482.493C136.844 483.094 134.891 483.895 133.038 484.546C129.382 485.848 126.077 487 123.272 488.102L116.36 491.157C112.654 492.86 110.751 493.962 110.901 494.312C111.052 494.663 113.155 494.312 117.112 493.26L124.374 491.207L134.39 488.603C136.243 488.152 138.197 487.551 140.25 487.1L146.811 485.648C149.115 485.197 151.468 484.546 153.973 484.145L161.735 482.743L165.842 481.992L170.099 481.441L178.964 480.239C185.124 479.688 191.585 478.937 198.446 478.736C213.331 478.033 228.248 478.452 243.07 479.988C260.084 481.763 276.953 484.725 293.554 488.853C311.183 493.11 329.363 498.87 348.094 505.28C366.825 511.691 386.057 519.103 406.09 526.265C416.107 529.821 426.123 533.226 436.14 536.282C446.156 539.337 456.173 542.141 466.189 544.195L468.042 544.645L469.996 544.996L473.652 545.697L480.864 547.049C485.872 547.951 490.379 548.902 495.237 549.604L508.81 551.657C511.114 552.008 513.468 552.258 515.822 552.508L522.733 553.31L529.594 554.061C531.848 554.361 534.152 554.462 536.356 554.612L549.678 555.563C558.442 555.814 566.956 556.315 575.22 556.014H584.285H587.29L598.959 555.213L610.128 554.061C613.784 553.76 617.34 553.21 620.795 552.659C627.757 551.757 634.268 550.355 640.478 549.153C643.583 548.502 646.538 547.751 649.443 547.049L653.7 545.998L657.756 544.846L665.469 542.642L672.581 540.338C677.088 538.936 681.145 537.383 684.801 536.031C699.375 530.472 707.038 526.666 706.838 526.015C706.637 525.364 698.274 527.767 683.449 532.025C679.743 533.026 675.636 534.278 671.079 535.38L663.967 537.183L656.254 538.936L652.197 539.887L647.99 540.689L639.176 542.342C633.066 543.243 626.605 544.345 619.794 544.996C616.388 545.397 612.932 545.847 609.326 545.998L598.408 546.799L586.989 547.099H584.034H581.08H575.12C567.056 547.099 558.743 546.498 550.078 546.098L537.057 544.946C534.853 544.695 532.649 544.595 530.446 544.295L523.735 543.393L516.923 542.542C514.67 542.241 512.366 541.991 510.062 541.59L496.189 539.287C491.531 538.635 486.773 537.584 481.966 536.632L474.754 535.23L471.098 534.479L469.395 534.128L467.592 533.727C458.026 531.674 448.41 528.719 438.694 525.914C428.978 523.11 419.162 519.504 409.245 515.898C389.212 508.836 370.08 501.474 351.099 495.113C332.82 488.799 314.232 483.416 295.407 478.987C278.283 475.013 260.891 472.302 243.371 470.873C228.086 469.667 212.73 469.667 197.445 470.873C190.433 471.324 183.822 472.376 177.411 473.177L168.346 474.83L164.039 475.631H163.238C166.543 473.277 170.049 470.923 173.755 468.62C212.032 445.39 257.052 435.821 301.467 441.475H302.468H303.47L305.423 441.775L309.33 442.326C311.934 442.677 314.338 443.228 317.143 443.728L321.099 444.48L325.056 445.381L329.012 446.232L332.969 447.234C343.586 449.889 354.304 453.194 365.122 457.251C386.758 464.863 408.694 474.429 431.432 484.145C454.17 493.861 476.506 503.127 499.144 510.539C508.56 513.694 517.925 516.449 527.291 518.903C529.325 521.877 532.153 524.219 535.454 525.664C539.335 527.381 543.531 528.268 547.774 528.268C551.801 528.292 555.789 527.491 559.494 525.914L565.354 526.866L569.36 527.467L573.367 528.018L581.33 529.02C586.639 529.52 591.998 530.121 597.006 530.372H600.762H602.415C606.029 531.891 609.914 532.658 613.834 532.625C617.715 532.645 621.562 531.896 625.153 530.422H627.156C645.043 529.464 662.836 527.205 680.394 523.661C696.471 520.455 710.794 516.749 723.165 512.993C726.27 512.041 729.275 511.04 732.13 510.088C734.984 509.137 737.739 508.235 740.343 507.284L747.806 504.529L754.216 502.125C758.473 500.472 762.179 498.719 765.385 497.117L769.742 495.063L773.298 493.16C777.505 490.906 779.608 489.454 779.408 489.003C779.207 488.553 776.753 489.003 772.146 490.456L772.296 490.656Z" fill="#838AC4"/>
<path d="M453.72 243.948C452.768 242.996 452.117 239.841 450.815 239.49C447.66 238.539 445.506 244.849 445.807 247.053C446.531 249.129 447.667 251.038 449.148 252.665C450.628 254.291 452.422 255.602 454.421 256.518C462.921 261.002 472.554 262.883 482.117 261.927C496.24 261.627 475.606 251.911 472.1 251.26C467.897 250.579 463.782 249.437 459.83 247.854C457.582 246.973 455.537 245.644 453.82 243.948H453.72Z" fill="#838AC4"/>
<path d="M407.694 270.692C406.592 263.831 399.18 259.724 393.52 256.969C391.567 256.018 388.512 254.866 387.41 257.52C386.308 260.174 390.065 262.528 392.168 263.68C382.101 273.997 409.497 281.76 407.694 270.692Z" fill="#838AC4"/>
<path d="M389.564 280.258C390.338 283.416 392.291 286.158 395.023 287.92C397.427 289.373 400.032 286.017 398.579 283.814C396.194 281.073 393.97 278.197 391.918 275.199C390.065 271.944 389.364 279.506 389.564 280.208V280.258Z" fill="#838AC4"/>
<path d="M418.662 247.853C418.642 247.754 418.642 247.652 418.662 247.554C418.648 247.653 418.648 247.754 418.662 247.853Z" fill="#838AC4"/>
<path d="M410.899 247.253C412.652 250.258 417.66 254.315 418.662 248.005C418.585 247.389 418.585 246.767 418.662 246.151C416.759 239.991 407.694 243.096 411.05 247.253H410.899Z" fill="#838AC4"/>
<path d="M436.341 163.965C434.638 156.754 456.374 145.385 454.271 141.228C452.167 137.071 442.651 145.435 441.149 147.188C439.017 149.38 437.448 152.055 436.576 154.986C435.704 157.917 435.554 161.015 436.14 164.016L436.341 163.965Z" fill="#838AC4"/>
<path d="M513.018 320.575C516.574 327.636 520.831 320.224 524.186 319.523C527.542 318.822 535.355 318.321 532.55 313.363C529.745 308.404 520.43 305.6 525.438 312.561C524.704 312.153 523.91 311.865 523.084 311.71C518.076 310.157 509.913 314.464 513.068 320.575H513.018Z" fill="#838AC4"/>
<path d="M459.229 227.02L478.762 244.498C477.168 240.219 474.557 236.392 471.154 233.347C467.751 230.301 463.659 228.13 459.229 227.02Z" fill="#838AC4"/>
<path d="M471.248 202.83H471.749C472.245 202.647 472.668 202.31 472.957 201.868C473.246 201.426 473.384 200.903 473.352 200.376C473.317 199.857 473.111 199.364 472.767 198.975C472.423 198.585 471.959 198.32 471.449 198.222H470.898C470.508 198.145 470.105 198.158 469.721 198.261C469.337 198.363 468.982 198.552 468.682 198.813C468.382 199.074 468.146 199.4 467.992 199.767C467.838 200.133 467.77 200.53 467.793 200.927C467.816 201.322 467.932 201.706 468.13 202.05C468.327 202.393 468.602 202.685 468.933 202.904C469.263 203.122 469.64 203.261 470.033 203.309C470.426 203.357 470.825 203.313 471.198 203.18L471.248 202.83Z" fill="#838AC4"/>
<path d="M416.058 179.842C415.633 179.865 415.222 180.003 414.869 180.241C414.517 180.479 414.235 180.808 414.054 181.194C413.774 181.561 413.622 182.009 413.622 182.471C413.622 182.933 413.774 183.381 414.054 183.748C414.286 184.1 414.609 184.384 414.987 184.569C415.366 184.754 415.788 184.833 416.208 184.8C416.537 184.777 416.858 184.689 417.153 184.542C417.448 184.395 417.711 184.191 417.927 183.942C418.364 183.44 418.583 182.785 418.537 182.12C418.49 181.456 418.182 180.838 417.679 180.401C417.177 179.964 416.522 179.745 415.857 179.792L416.058 179.842Z" fill="#838AC4"/>
<path d="M556.24 488.152C555.545 488.517 554.945 489.04 554.489 489.679C554.032 490.319 553.733 491.057 553.615 491.833C553.496 492.609 553.562 493.403 553.807 494.149C554.052 494.895 554.469 495.574 555.025 496.129C555.58 496.684 556.258 497.101 557.004 497.346C557.751 497.591 558.544 497.657 559.321 497.539C560.097 497.42 560.835 497.121 561.474 496.665C562.114 496.209 562.637 495.609 563.002 494.913C563.497 493.968 563.678 492.888 563.517 491.833C563.356 490.778 562.862 489.801 562.107 489.046C561.352 488.291 560.376 487.797 559.321 487.637C558.265 487.476 557.186 487.656 556.24 488.152Z" fill="#838AC4"/>
<path d="M593.951 479.287C594.696 478.606 595.218 477.715 595.448 476.732C595.677 475.749 595.605 474.72 595.239 473.779C594.874 472.838 594.232 472.029 593.399 471.459C592.566 470.889 591.58 470.584 590.571 470.584C589.561 470.584 588.575 470.889 587.742 471.459C586.909 472.029 586.268 472.838 585.902 473.779C585.537 474.72 585.464 475.749 585.694 476.732C585.924 477.715 586.445 478.606 587.19 479.287C588.113 480.132 589.319 480.6 590.571 480.6C591.822 480.6 593.028 480.132 593.951 479.287Z" fill="#838AC4"/>
<path d="M597.758 489.254C595.605 484.245 587.091 482.993 578.677 486.549C570.263 490.105 565.154 497.117 567.308 502.125C569.462 507.133 578.026 508.385 586.39 504.829C594.753 501.273 599.912 494.312 597.758 489.254Z" fill="#838AC4"/>
<path d="M595.905 454.747C596.819 455.411 597.931 455.746 599.06 455.698C599.893 455.695 600.701 455.418 601.361 454.912C602.021 454.405 602.497 453.696 602.716 452.893C602.847 452.324 602.855 451.734 602.74 451.161C602.624 450.588 602.388 450.047 602.047 449.573C601.706 449.099 601.267 448.703 600.761 448.412C600.254 448.121 599.692 447.942 599.11 447.885L599.411 447.084C600.112 445.531 601.314 442.777 603.468 443.628C604.219 443.929 604.569 442.827 603.968 442.426C598.309 438.67 589.545 451.591 595.905 454.696V454.747Z" fill="#838AC4"/>
<path d="M530.396 475.481C528.517 475.668 526.754 476.479 525.388 477.785C524.537 478.686 523.685 480.589 524.837 481.591C525.989 482.593 526.039 480.639 527.041 480.038C527.945 479.667 528.925 479.514 529.9 479.592C530.874 479.67 531.817 479.978 532.65 480.489C532.25 481.09 531.398 482.292 531.598 483.043C531.799 483.795 533.151 483.795 534.153 483.644C535.956 483.294 537.959 483.644 538.61 481.341C539.962 476.933 533.602 474.98 530.296 475.481H530.396Z" fill="#838AC4"/>
<path d="M693.245 151.019C692.853 150.549 692.32 150.217 691.725 150.073C691.129 149.928 690.504 149.979 689.94 150.218L684.931 152.171L681.476 148.064C681.09 147.585 680.56 147.244 679.964 147.09C679.368 146.937 678.739 146.98 678.17 147.213H677.669C677.239 147.49 676.89 147.878 676.661 148.337C676.432 148.795 676.331 149.306 676.367 149.817L675.866 155.677L671.709 157.23H671.209C670.77 157.499 670.415 157.885 670.185 158.346C669.955 158.806 669.859 159.321 669.906 159.834C669.946 160.445 670.175 161.029 670.56 161.504C670.946 161.98 671.47 162.323 672.06 162.488L677.068 163.79L677.419 169.199C677.457 169.813 677.692 170.398 678.089 170.867C678.486 171.336 679.024 171.665 679.623 171.804C680.002 171.9 680.398 171.919 680.785 171.859C681.173 171.799 681.544 171.661 681.876 171.453C682.225 171.205 682.529 170.9 682.778 170.552L685.632 165.994L690.641 167.296C691.021 167.393 691.416 167.412 691.803 167.351C692.191 167.291 692.562 167.153 692.894 166.946C693.243 166.697 693.548 166.393 693.796 166.044C694.147 165.546 694.336 164.951 694.336 164.341C694.336 163.732 694.147 163.137 693.796 162.638L690.34 158.482L693.195 153.924C693.561 153.432 693.758 152.835 693.758 152.221C693.758 151.608 693.561 151.011 693.195 150.518L693.245 151.019Z" fill="white"/>
<path d="M678.376 46.6511C677.831 45.9896 677.089 45.523 676.261 45.3201C675.433 45.1172 674.563 45.1888 673.778 45.5244L666.811 48.2707L662.004 42.4965C661.467 41.8229 660.73 41.3426 659.901 41.1269C659.073 40.9112 658.197 40.9717 657.406 41.2994H656.709C656.11 41.6893 655.625 42.235 655.307 42.8793C654.988 43.5236 654.847 44.2426 654.898 44.9611L654.201 53.1998L648.418 55.3827H647.722C647.111 55.7611 646.618 56.3047 646.298 56.9519C645.978 57.5991 645.844 58.324 645.91 59.0444C645.965 59.9035 646.283 60.7241 646.82 61.3927C647.357 62.0612 648.086 62.5448 648.906 62.7764L655.873 64.6073L656.361 72.2123C656.413 73.0748 656.74 73.8971 657.293 74.5568C657.845 75.2165 658.593 75.6785 659.426 75.8739C659.954 76.0098 660.505 76.0362 661.043 75.9515C661.582 75.8668 662.099 75.6727 662.561 75.381C663.046 75.0318 663.47 74.6034 663.815 74.1135L667.786 67.7056L674.753 69.5364C675.282 69.6723 675.832 69.6987 676.371 69.614C676.909 69.5293 677.426 69.3352 677.888 69.0435C678.373 68.6943 678.797 68.2659 679.142 67.776C679.631 67.0754 679.894 66.2391 679.894 65.3818C679.894 64.5246 679.631 63.6883 679.142 62.9877L674.335 57.1431L678.306 50.7352C678.815 50.043 679.09 49.2035 679.09 48.3411C679.09 47.4786 678.815 46.6391 678.306 45.9469L678.376 46.6511Z" fill="#FBCC72"/>
<path d="M733.432 390.19C733.36 389.655 733.124 389.156 732.756 388.761C732.388 388.366 731.907 388.095 731.379 387.986L726.771 387.085L726.22 382.427C726.155 381.889 725.922 381.386 725.553 380.99C725.184 380.594 724.698 380.325 724.167 380.223H723.666C723.216 380.227 722.776 380.35 722.389 380.578C722.002 380.807 721.682 381.134 721.462 381.525L718.307 385.582L714.551 384.731H714.15C713.701 384.735 713.26 384.857 712.873 385.086C712.486 385.314 712.167 385.641 711.946 386.033C711.673 386.496 711.559 387.036 711.623 387.569C711.686 388.103 711.923 388.602 712.297 388.988L715.502 392.493L713.198 396.6C712.955 397.075 712.862 397.612 712.934 398.141C713.006 398.669 713.238 399.163 713.599 399.555C713.839 399.805 714.127 400.005 714.445 400.143C714.763 400.28 715.106 400.353 715.452 400.356C715.799 400.425 716.157 400.425 716.504 400.356L720.761 398.403L723.966 401.859C724.473 402.363 725.155 402.65 725.869 402.66C726.233 402.648 726.591 402.563 726.921 402.41C727.41 402.189 727.816 401.816 728.077 401.347C728.339 400.879 728.443 400.338 728.374 399.806L727.823 395.148L732.08 393.145C732.62 392.893 733.052 392.458 733.3 391.916C733.548 391.375 733.595 390.763 733.432 390.19Z" fill="#FBCC72"/>
<path d="M152.722 257.967C152.65 257.432 152.414 256.932 152.046 256.538C151.678 256.143 151.197 255.872 150.669 255.763L146.061 254.861L145.51 250.204C145.446 249.666 145.212 249.163 144.843 248.767C144.474 248.371 143.988 248.102 143.457 248H142.956C142.506 248.004 142.066 248.126 141.679 248.355C141.292 248.584 140.972 248.91 140.752 249.302L137.597 253.359L133.841 252.507H133.44C132.991 252.511 132.55 252.634 132.163 252.863C131.776 253.091 131.457 253.418 131.236 253.81C130.963 254.273 130.849 254.812 130.913 255.346C130.976 255.88 131.213 256.378 131.587 256.765L134.792 260.27L132.489 264.377C132.245 264.851 132.152 265.389 132.224 265.918C132.296 266.446 132.528 266.94 132.889 267.332C133.129 267.582 133.417 267.782 133.735 267.92C134.053 268.057 134.396 268.13 134.742 268.133C135.089 268.202 135.447 268.202 135.794 268.133L140.051 266.18L143.256 269.636C143.763 270.14 144.445 270.427 145.159 270.437C145.523 270.425 145.881 270.34 146.211 270.187C146.701 269.966 147.106 269.593 147.367 269.124C147.629 268.655 147.733 268.115 147.664 267.582L147.113 262.925L151.37 260.921C151.91 260.67 152.342 260.235 152.59 259.693C152.838 259.152 152.885 258.539 152.722 257.967Z" fill="white"/>
<path d="M428.227 63.4989C428.302 62.9704 428.54 62.4785 428.908 62.0922C429.276 61.706 429.756 61.4448 430.281 61.3453L434.888 60.4438L435.489 55.8362C435.551 55.3055 435.777 54.8075 436.137 54.4122C436.496 54.0169 436.97 53.7442 437.493 53.6326H437.993C438.443 53.6366 438.883 53.7591 439.27 53.9877C439.657 54.2163 439.977 54.543 440.197 54.9347L443.352 58.9914L447.108 58.1901H447.609C448.061 58.1834 448.506 58.3014 448.894 58.5311C449.283 58.7609 449.601 59.0935 449.813 59.4923C450.078 59.9575 450.187 60.4956 450.124 61.0274C450.061 61.5593 449.829 62.0569 449.462 62.4471L446.257 65.9029L448.561 70.0097C448.782 70.3929 448.898 70.828 448.897 71.2706C448.895 71.7131 448.776 72.1474 448.552 72.5291C448.328 72.9109 448.007 73.2264 447.622 73.4437C447.236 73.6609 446.8 73.7721 446.357 73.7659C445.994 73.8415 445.619 73.8415 445.255 73.7659L440.998 71.7626L437.793 75.2183C437.559 75.4756 437.272 75.6802 436.953 75.8183C436.633 75.9565 436.288 76.0251 435.94 76.0196C435.576 76.0912 435.202 76.0912 434.838 76.0196C434.367 75.7757 433.979 75.3987 433.721 74.9357C433.462 74.4727 433.346 73.944 433.386 73.4153L433.987 68.7075L429.68 66.7042C429.088 66.4394 428.613 65.9673 428.346 65.3768C428.078 64.7863 428.036 64.1184 428.227 63.4989Z" fill="#FBCC72"/>
<path d="M439.797 199.374C438.45 199.374 437.133 198.975 436.013 198.226C434.893 197.478 434.02 196.414 433.504 195.169C432.989 193.925 432.854 192.555 433.117 191.234C433.38 189.913 434.028 188.699 434.981 187.746C435.933 186.794 437.147 186.145 438.468 185.882C439.79 185.62 441.159 185.754 442.404 186.27C443.648 186.785 444.712 187.658 445.46 188.779C446.209 189.899 446.608 191.216 446.608 192.563C446.608 194.369 445.891 196.102 444.613 197.379C443.336 198.656 441.604 199.374 439.797 199.374Z" fill="white"/>
<path d="M488.778 202.479C488.778 203.342 489.121 204.17 489.732 204.781C490.342 205.391 491.17 205.734 492.033 205.734C492.901 205.735 493.735 205.393 494.353 204.784C494.972 204.175 495.326 203.347 495.339 202.479C495.326 201.606 494.974 200.773 494.356 200.156C493.739 199.539 492.906 199.187 492.033 199.174C491.165 199.187 490.337 199.541 489.728 200.159C489.119 200.778 488.778 201.611 488.778 202.479Z" fill="white"/>
<path d="M767.615 25.3419C765.105 25.3518 762.648 24.6158 760.557 23.2273C758.466 21.8388 756.834 19.8604 755.868 17.5431C754.903 15.2257 754.648 12.6738 755.135 10.2112C755.623 7.74865 756.831 5.48634 758.606 3.71126C760.381 1.93618 762.643 0.728359 765.106 0.241045C767.568 -0.246269 770.12 0.00887029 772.437 0.974108C774.755 1.93935 776.733 3.57119 778.122 5.66258C779.51 7.75397 780.246 10.2106 780.236 12.721C780.236 16.0682 778.907 19.2784 776.54 21.6453C774.173 24.0122 770.963 25.3419 767.615 25.3419Z" fill="white"/>
<path d="M581.895 44C580.906 44 579.939 43.7068 579.117 43.1573C578.294 42.6079 577.654 41.827 577.275 40.9134C576.897 39.9998 576.798 38.9945 576.991 38.0246C577.184 37.0546 577.66 36.1637 578.359 35.4645C579.058 34.7652 579.949 34.289 580.919 34.0961C581.889 33.9032 582.894 34.0022 583.808 34.3806C584.722 34.759 585.502 35.3999 586.052 36.2222C586.601 37.0444 586.895 38.0111 586.895 39C586.888 40.3241 586.359 41.5922 585.423 42.5286C584.487 43.4649 583.219 43.9937 581.895 44Z" fill="white"/>
<path d="M772.615 505.342C770.107 505.352 767.652 504.617 765.562 503.231C763.472 501.845 761.84 499.869 760.873 497.555C759.907 495.24 759.648 492.691 760.132 490.23C760.615 487.769 761.818 485.506 763.588 483.729C765.358 481.952 767.616 480.74 770.075 480.247C772.534 479.754 775.084 480.002 777.403 480.96C779.721 481.917 781.703 483.541 783.097 485.626C784.492 487.711 785.236 490.163 785.236 492.671C785.243 494.332 784.921 495.979 784.29 497.516C783.659 499.053 782.73 500.45 781.557 501.628C780.385 502.805 778.991 503.739 777.457 504.376C775.922 505.014 774.277 505.342 772.615 505.342Z" fill="white"/>
<path d="M820.539 152.933L780.347 154.645L781.767 148.669L821.959 146.956L820.539 152.933ZM802.737 200.362C801.505 200.076 800.386 199.431 799.521 198.508C798.656 197.585 798.084 196.427 797.878 195.179C797.672 193.931 797.842 192.65 798.365 191.499C798.888 190.347 799.741 189.377 800.816 188.71C801.891 188.044 803.139 187.712 804.403 187.756C805.667 187.8 806.89 188.219 807.916 188.958C808.941 189.698 809.725 190.726 810.166 191.911C810.607 193.096 810.687 194.386 810.394 195.616C810.004 197.259 808.98 198.679 807.545 199.569C806.11 200.458 804.382 200.743 802.737 200.362ZM755.911 202.363C754.682 202.07 753.568 201.42 752.708 200.495C751.848 199.569 751.283 198.409 751.082 197.162C750.882 195.915 751.056 194.636 751.582 193.488C752.108 192.339 752.963 191.373 754.039 190.71C755.114 190.048 756.362 189.719 757.625 189.766C758.887 189.812 760.107 190.232 761.131 190.973C762.155 191.713 762.936 192.74 763.376 193.924C763.816 195.108 763.894 196.396 763.602 197.625C763.211 199.273 762.18 200.698 760.738 201.587C759.296 202.475 757.559 202.754 755.911 202.363ZM828.517 141.555C828.199 141.183 827.806 140.882 827.364 140.671C826.918 140.459 826.431 140.343 825.937 140.332L779.112 142.333C778.415 142.358 777.747 142.616 777.215 143.066C776.686 143.51 776.315 144.115 776.16 144.789L766.161 186.861C764.122 184.923 761.501 183.712 758.703 183.416C755.906 183.12 753.089 183.756 750.69 185.224C748.291 186.693 746.444 188.912 745.435 191.538C744.426 194.163 744.312 197.049 745.111 199.746C745.909 202.443 747.575 204.801 749.851 206.455C752.127 208.108 754.885 208.964 757.697 208.889C760.509 208.815 763.217 207.815 765.403 206.044C767.588 204.273 769.127 201.83 769.783 199.094L778.813 161.097L819.006 159.385L812.945 184.886C811.32 183.346 809.318 182.262 807.141 181.742C804.963 181.222 802.687 181.285 800.542 181.924C798.397 182.564 796.458 183.757 794.921 185.385C793.384 187.012 792.303 189.016 791.786 191.194C791.298 192.857 791.153 194.603 791.361 196.324C791.568 198.045 792.124 199.706 792.995 201.206C793.865 202.705 795.032 204.012 796.423 205.046C797.815 206.08 799.402 206.82 801.089 207.221C802.776 207.622 804.527 207.675 806.235 207.378C807.943 207.08 809.572 206.438 811.024 205.491C812.476 204.543 813.72 203.31 814.68 201.866C815.64 200.423 816.296 198.799 816.608 197.093L829.15 144.325C829.266 143.855 829.272 143.366 829.167 142.894C829.041 142.409 828.82 141.954 828.517 141.555Z" fill="#001489"/>
<path fill-rule="evenodd" clip-rule="evenodd" d="M27.3288 302.659C25.9864 302.928 24.5945 302.791 23.3296 302.268C22.0646 301.744 20.9836 300.857 20.2235 299.719C19.4635 298.58 19.0587 297.241 19.0605 295.872C19.0623 294.503 19.4705 293.166 20.2335 292.029C20.9965 290.892 22.0797 290.008 23.346 289.488C24.6123 288.967 26.0046 288.835 27.3463 289.107C28.688 289.379 29.9187 290.043 30.8823 291.016C31.8459 291.988 32.4991 293.225 32.759 294.569C33.1056 296.361 32.7291 298.218 31.7117 299.733C30.6944 301.249 29.1188 302.301 27.3288 302.659ZM52.0259 242.66C44.589 239.391 37.7835 234.843 31.9188 229.222L26.8636 224.119C26.357 223.57 25.6738 223.217 24.9334 223.121C24.2022 223.011 23.4557 223.155 22.8181 223.53C22.1553 223.842 21.6269 224.382 21.3295 225.052C21.0028 225.723 20.8934 226.479 21.0164 227.215L31.2834 280.317C29.0073 279.517 26.558 279.343 24.1917 279.814C21.5037 280.324 19.0277 281.621 17.0772 283.54C15.1267 285.459 13.7894 287.913 13.2348 290.592C12.6801 293.272 12.9329 296.055 13.9612 298.591C14.9896 301.126 16.7472 303.299 19.0115 304.835C21.2758 306.371 23.945 307.201 26.681 307.219C29.417 307.237 32.0968 306.443 34.3811 304.937C36.6655 303.431 38.4515 301.281 39.5131 298.759C40.5747 296.237 40.8642 293.457 40.3448 290.771L29.9159 236.832C35.7085 241.791 42.1683 245.912 49.1064 249.076C51.0787 250.014 52.7046 251.55 53.7521 253.466C54.7996 255.383 55.2153 257.581 54.9399 259.747C54.6646 261.914 53.7122 263.938 52.2185 265.531C50.7249 267.124 48.7663 268.205 46.6221 268.619C46.1765 268.706 45.7522 268.879 45.3735 269.129C44.9948 269.379 44.6691 269.701 44.4149 270.077C44.1607 270.453 43.9831 270.876 43.8922 271.32C43.8013 271.765 43.7988 272.223 43.885 272.669C43.9711 273.114 44.1442 273.539 44.3943 273.917C44.6444 274.296 44.9667 274.622 45.3427 274.876C45.7187 275.13 46.1411 275.308 46.5858 275.399C47.0304 275.49 47.4886 275.492 47.9342 275.406C51.5774 274.767 54.9195 272.977 57.4692 270.297C60.0189 267.618 61.6415 264.191 62.0986 260.52C62.5556 256.85 61.8229 253.13 60.0083 249.907C58.1936 246.684 55.3927 244.128 52.0174 242.616L52.0259 242.66Z" fill="#001489"/>
</svg>
