<svg width="309" height="314" viewBox="0 0 309 314" fill="none" xmlns="http://www.w3.org/2000/svg">
<path opacity="0.1" d="M299.079 147.255C301.573 144.525 304.802 142.574 308.377 141.637V235.333C305.902 236.035 303.357 236.484 300.779 236.669C295.821 237.027 290.842 236.402 286.125 234.831C281.408 233.26 277.046 230.773 273.289 227.513C271.007 230.103 268.152 232.121 264.952 233.407C261.751 234.693 258.295 235.21 254.859 234.918C251.423 234.626 248.103 233.533 245.165 231.725C242.227 229.917 239.752 227.446 237.939 224.508C234.212 228.316 229.665 231.218 224.645 232.993C219.625 234.767 214.266 235.367 208.979 234.746C203.692 234.126 198.617 232.301 194.143 229.412C189.67 226.522 185.915 222.645 183.169 218.078C181.371 221.42 178.704 224.212 175.451 226.159C172.198 228.106 168.479 229.134 164.689 229.136C160.435 229.127 156.285 227.825 152.787 225.401C149.289 222.978 146.608 219.547 145.099 215.564C143.762 219.83 141.102 223.559 137.505 226.208C133.909 228.858 129.563 230.29 125.099 230.298C120.972 230.294 116.937 229.072 113.499 226.785C110.061 224.497 107.373 221.246 105.769 217.437C103.532 220.192 100.709 222.412 97.5073 223.937C94.3053 225.462 90.8042 226.252 87.2588 226.251C82.8666 226.247 78.5607 225.03 74.8149 222.732C71.0692 220.435 68.029 217.147 66.0288 213.23C65.0989 214.626 63.8392 215.771 62.3617 216.563C60.8842 217.354 59.2344 217.768 57.5588 217.768C56.0167 217.768 54.4948 217.416 53.1086 216.74C51.7224 216.063 50.5084 215.078 49.5588 213.861C48.7587 214.724 47.7902 215.413 46.7134 215.885C45.6365 216.357 44.4743 216.602 43.2988 216.606C41.9035 216.607 40.5296 216.263 39.2988 215.604C38.2307 216.32 36.9738 216.7 35.6888 216.696C34.7545 216.695 33.8314 216.492 32.9823 216.102C32.1333 215.711 31.3783 215.142 30.7688 214.432C29.8191 215.281 28.5916 215.752 27.3188 215.754C26.551 215.748 25.794 215.571 25.1024 215.237C24.4108 214.903 23.8017 214.419 23.3188 213.821C21.3329 214.723 19.1534 215.112 16.9788 214.953C14.0088 214.843 11.4988 214.062 10.2988 213.06C4.67884 213.691 0.228829 213.15 0.00882863 211.688C-0.241171 210.065 4.84883 207.922 11.3888 206.92C14.0024 206.493 16.653 206.335 19.2988 206.45C19.6288 204.597 21.9088 203.044 24.8788 202.814C27.8488 202.583 30.3988 203.825 30.9588 205.648C31.567 204.992 32.3035 204.469 33.1224 204.111C33.9413 203.752 34.8251 203.566 35.7188 203.565H35.9688C36.5786 202.541 37.3952 201.655 38.3664 200.965C39.3377 200.275 40.442 199.796 41.6088 199.559C42.0681 197.996 43.0193 196.625 44.3204 195.648C45.6215 194.672 47.203 194.143 48.8288 194.14C49.8624 194.143 50.8841 194.361 51.8288 194.781C52.4489 192.661 53.7377 190.799 55.5025 189.473C57.2673 188.148 59.4131 187.431 61.6188 187.429C63.6422 187.427 65.62 188.031 67.2988 189.162C69.469 185.85 72.4279 183.13 75.9088 181.249C79.3898 179.368 83.2834 178.383 87.2388 178.385C89.5287 178.389 91.8059 178.726 93.9988 179.386C95.775 176.252 98.3486 173.645 101.458 171.831C104.567 170.017 108.101 169.061 111.699 169.06C113.97 169.067 116.224 169.453 118.369 170.202C119.361 161.686 123.442 153.831 129.835 148.129C136.228 142.428 144.489 139.276 153.049 139.272C156.317 139.279 159.569 139.744 162.709 140.655C164.478 132.098 168.702 124.244 174.861 118.056C181.02 111.867 188.848 107.613 197.386 105.814C205.923 104.015 214.799 104.75 222.926 107.928C231.053 111.106 238.077 116.59 243.139 123.707C247.968 119.752 253.782 117.189 259.956 116.294C266.13 115.398 272.431 116.205 278.182 118.625C283.933 121.046 288.917 124.99 292.598 130.035C296.28 135.079 298.52 141.032 299.079 147.255Z" fill="white"/>
<path d="M228.482 5.66011C227.937 4.99756 227.196 4.53019 226.368 4.32698C225.54 4.12378 224.669 4.19552 223.884 4.53165L216.917 7.28231L212.11 1.49889C211.574 0.824258 210.836 0.343119 210.008 0.127074C209.179 -0.0889709 208.304 -0.0283552 207.512 0.29991H206.815C206.216 0.690437 205.732 1.23702 205.413 1.88231C205.094 2.5276 204.953 3.24782 205.004 3.96743L204.307 12.2193L198.525 14.4057H197.828C197.218 14.7847 196.725 15.3292 196.405 15.9774C196.084 16.6256 195.95 17.3517 196.017 18.0733C196.072 18.9338 196.39 19.7556 196.926 20.4253C197.463 21.0949 198.192 21.5793 199.012 21.8113L205.979 23.6451L206.467 31.2622C206.52 32.1261 206.847 32.9497 207.399 33.6105C207.951 34.2713 208.7 34.734 209.532 34.9297C210.061 35.0658 210.611 35.0922 211.15 35.0074C211.689 34.9225 212.205 34.7282 212.668 34.436C213.152 34.0862 213.576 33.6572 213.922 33.1665L217.893 26.7483L224.86 28.5821C225.388 28.7182 225.938 28.7446 226.477 28.6598C227.016 28.5749 227.532 28.3806 227.995 28.0884C228.48 27.7386 228.903 27.3095 229.249 26.8189C229.738 26.1171 230 25.2795 230 24.4209C230 23.5622 229.738 22.7246 229.249 22.0229L224.442 16.169L228.413 9.75082C228.922 9.05749 229.197 8.21665 229.197 7.35282C229.197 6.489 228.922 5.64815 228.413 4.95483L228.482 5.66011Z" fill="#FBCC72"/>
<path d="M121.107 94.3799C120.786 94.0013 120.35 93.7342 119.863 93.6181C119.376 93.502 118.864 93.5429 118.403 93.735L114.304 95.3068L111.477 92.002C111.161 91.6165 110.727 91.3416 110.24 91.2181C109.752 91.0947 109.238 91.1293 108.772 91.3169H108.362C108.009 91.54 107.725 91.8524 107.537 92.2211C107.35 92.5899 107.266 93.0014 107.296 93.4126L106.887 98.128L103.485 99.3773H103.075C102.716 99.5939 102.426 99.905 102.238 100.275C102.05 100.646 101.971 101.061 102.01 101.473C102.042 101.965 102.229 102.434 102.545 102.817C102.861 103.2 103.289 103.476 103.772 103.609L107.87 104.657L108.157 109.01C108.188 109.503 108.38 109.974 108.705 110.351C109.03 110.729 109.47 110.993 109.96 111.105C110.271 111.183 110.595 111.198 110.912 111.15C111.229 111.101 111.532 110.99 111.804 110.823C112.09 110.623 112.339 110.378 112.542 110.098L114.878 106.43L118.976 107.478C119.287 107.556 119.611 107.571 119.928 107.523C120.245 107.474 120.548 107.363 120.82 107.196C121.106 106.996 121.355 106.751 121.558 106.471C121.846 106.07 122 105.591 122 105.1C122 104.61 121.846 104.131 121.558 103.73L118.73 100.385L121.066 96.7174C121.366 96.3212 121.527 95.8407 121.527 95.3471C121.527 94.8535 121.366 94.373 121.066 93.9768L121.107 94.3799Z" fill="white"/>
<path d="M202.118 301.348C202.192 300.818 202.43 300.326 202.799 299.939C203.167 299.552 203.647 299.29 204.171 299.191L208.779 298.288L209.38 293.673C209.441 293.141 209.668 292.642 210.027 292.246C210.387 291.851 210.861 291.577 211.383 291.466H211.884C212.333 291.47 212.774 291.592 213.161 291.821C213.548 292.05 213.867 292.377 214.088 292.77L217.243 296.833L220.999 296.03H221.5C221.952 296.024 222.396 296.142 222.785 296.372C223.174 296.602 223.492 296.935 223.704 297.335C223.969 297.801 224.078 298.34 224.015 298.872C223.952 299.405 223.72 299.903 223.353 300.294L220.148 303.756L222.452 307.869C222.673 308.253 222.789 308.689 222.787 309.132C222.786 309.575 222.667 310.01 222.443 310.392C222.219 310.775 221.898 311.091 221.512 311.308C221.127 311.526 220.69 311.637 220.248 311.631C219.884 311.707 219.509 311.707 219.146 311.631L214.889 309.625L211.684 313.086C211.449 313.344 211.163 313.548 210.843 313.687C210.524 313.825 210.179 313.894 209.831 313.888C209.467 313.96 209.093 313.96 208.729 313.888C208.258 313.644 207.87 313.267 207.611 312.803C207.353 312.339 207.237 311.809 207.276 311.28L207.877 306.565L203.57 304.558C202.979 304.293 202.504 303.82 202.237 303.229C201.969 302.637 201.927 301.968 202.118 301.348Z" fill="#FBCC72"/>
</svg>
