<svg width="866" height="496" viewBox="0 0 866 496" fill="none" xmlns="http://www.w3.org/2000/svg">
<path opacity="0.1" d="M359.12 433.142V433.432C375.99 433.693 389.32 436.778 389.36 440.544C389.36 443.909 378.79 446.714 364.57 447.475C363.69 453.354 359.01 457.841 353.36 457.841C351.484 457.84 349.642 457.342 348.02 456.399C347.039 457.995 345.671 459.317 344.043 460.241C342.416 461.166 340.581 461.663 338.71 461.688H337.89C335.79 470.702 322.21 477.663 305.73 477.663C300.337 477.691 294.971 476.89 289.82 475.289C288.155 476.077 286.345 476.508 284.504 476.557C282.664 476.605 280.834 476.269 279.13 475.57C277.074 478.217 274.454 480.371 271.459 481.873C268.465 483.375 265.173 484.186 261.825 484.249C258.477 484.311 255.158 483.623 252.11 482.234C249.062 480.844 246.362 478.79 244.21 476.221C237.12 487.539 225.17 494.961 211.62 494.961C203.19 494.937 195.018 492.048 188.44 486.768C187.104 489.337 185.087 491.488 182.611 492.986C180.135 494.483 177.296 495.268 174.403 495.256C171.511 495.243 168.678 494.434 166.215 492.915C163.752 491.397 161.754 489.228 160.44 486.647C158.071 487.599 155.543 488.092 152.99 488.1C145.11 488.1 138.24 483.522 134.43 476.702C128.15 484.664 116.63 490.023 103.43 490.023C92.71 490.023 83.09 486.487 76.52 480.898C74.7628 482.884 72.6083 484.477 70.1964 485.575C67.7845 486.672 65.169 487.249 62.52 487.268C59.1425 487.22 55.8366 486.287 52.9312 484.561C50.0258 482.836 47.6223 480.378 45.96 477.433C44.8297 478.808 43.4069 479.912 41.7955 480.666C40.1842 481.419 38.425 481.802 36.6468 481.787C34.8686 481.771 33.1164 481.358 31.5182 480.577C29.92 479.796 28.5164 478.667 27.41 477.272C23.6753 480.55 18.9664 482.504 14.0117 482.831C10.4074 483.07 6.81912 482.438 3.54001 481.015V363.841C11.5 353.965 23.22 347.725 36.22 347.725C45.4608 347.751 54.4219 350.903 61.65 356.67C63.9933 353.695 66.9517 351.263 70.3219 349.541C73.6921 347.82 77.3945 346.849 81.1746 346.696C84.9548 346.543 88.7233 347.211 92.2214 348.654C95.7195 350.097 98.8643 352.282 101.44 355.057C102.759 352.488 104.749 350.325 107.199 348.799C109.649 347.273 112.466 346.442 115.35 346.393H116.24C119.99 339.312 127 334.534 135.06 334.534C143.37 334.534 150.59 339.613 154.25 347.064C155.724 346.59 157.262 346.347 158.81 346.343C161.612 346.386 164.354 347.17 166.756 348.616C169.158 350.062 171.137 352.118 172.49 354.576C174.497 351.043 177.391 348.096 180.885 346.026C184.379 343.957 188.351 342.837 192.41 342.778C202.22 342.778 210.58 349.198 214.22 358.372C216.672 355.413 219.737 353.022 223.202 351.365C226.667 349.708 230.45 348.825 234.29 348.777C249.5 348.777 261.83 362.179 261.83 378.715C261.827 381.391 261.491 384.055 260.83 386.648C261.749 386.496 262.679 386.416 263.61 386.407C266.761 386.448 269.852 387.283 272.596 388.836C275.34 390.389 277.649 392.609 279.31 395.291C280.823 393.395 282.739 391.859 284.918 390.797C287.098 389.735 289.486 389.173 291.91 389.152C298.75 389.152 304.63 393.579 307.3 399.939C309.448 399.353 311.664 399.05 313.89 399.037C327.23 399.037 338.35 409.384 340.89 423.076L340.98 423.226C342.888 421.654 345.279 420.79 347.75 420.782C354.03 420.782 359.12 426.311 359.12 433.142Z" fill="white"/>
<path d="M106.048 35.8918C103.988 35.8918 101.974 35.2798 100.261 34.1333C98.5477 32.9868 97.2125 31.3573 96.4241 29.4507C95.6356 27.5442 95.4293 25.4463 95.8313 23.4223C96.2332 21.3983 97.2254 19.5392 98.6822 18.08C100.139 16.6207 101.995 15.627 104.016 15.2244C106.037 14.8218 108.131 15.0284 110.035 15.8182C111.938 16.6079 113.565 17.9452 114.71 19.6611C115.855 21.3769 116.466 23.3942 116.466 25.4579C116.452 28.221 115.351 30.8673 113.4 32.8212C111.449 34.7751 108.807 35.8786 106.048 35.8918Z" fill="white"/>
<path d="M254.749 234.241C254.823 233.711 255.061 233.218 255.43 232.832C255.798 232.445 256.278 232.183 256.802 232.083L261.41 231.181L262.011 226.566C262.073 226.034 262.299 225.535 262.658 225.139C263.018 224.743 263.492 224.47 264.014 224.358H264.515C264.965 224.362 265.405 224.485 265.792 224.714C266.179 224.943 266.499 225.27 266.719 225.663L269.874 229.726L273.63 228.923H274.131C274.583 228.916 275.027 229.035 275.416 229.265C275.805 229.495 276.123 229.828 276.335 230.227C276.6 230.693 276.709 231.232 276.646 231.765C276.583 232.298 276.351 232.796 275.984 233.187L272.779 236.648L275.083 240.762C275.304 241.146 275.42 241.581 275.418 242.025C275.417 242.468 275.298 242.903 275.074 243.285C274.85 243.668 274.529 243.984 274.143 244.201C273.758 244.419 273.321 244.53 272.879 244.524C272.516 244.6 272.141 244.6 271.777 244.524L267.52 242.517L264.315 245.979C264.08 246.236 263.794 246.441 263.474 246.58C263.155 246.718 262.81 246.787 262.462 246.781C262.098 246.853 261.724 246.853 261.36 246.781C260.889 246.537 260.501 246.159 260.242 245.696C259.984 245.232 259.868 244.702 259.908 244.173L260.508 239.457L256.201 237.451C255.61 237.186 255.135 236.713 254.868 236.121C254.6 235.53 254.558 234.861 254.749 234.241Z" fill="#FBCC72"/>
<path d="M863.982 5.02569C863.59 4.55446 863.056 4.22204 862.461 4.07752C861.866 3.93299 861.24 3.98401 860.676 4.22308L855.668 6.17945L852.212 2.06607C851.826 1.58624 851.296 1.24404 850.701 1.09038C850.105 0.93672 849.476 0.979833 848.907 1.21331H848.406C847.975 1.49106 847.627 1.87982 847.398 2.33877C847.169 2.79773 847.067 3.30997 847.104 3.82179L846.603 9.69085L842.446 11.2459H841.945C841.506 11.5155 841.152 11.9027 840.922 12.3637C840.692 12.8248 840.595 13.3412 840.643 13.8544C840.683 14.4664 840.911 15.051 841.297 15.5272C841.683 16.0035 842.207 16.348 842.797 16.513L847.805 17.8173L848.155 23.2349C848.193 23.8493 848.428 24.4351 848.825 24.9051C849.222 25.375 849.76 25.7041 850.359 25.8433C850.739 25.9401 851.134 25.9589 851.522 25.8986C851.909 25.8382 852.28 25.7 852.613 25.4922C852.961 25.2434 853.266 24.9383 853.514 24.5893L856.369 20.0244L861.377 21.3287C861.757 21.4255 862.153 21.4443 862.54 21.3839C862.927 21.3236 863.298 21.1853 863.631 20.9775C863.979 20.7287 864.284 20.4236 864.533 20.0746C864.884 19.5755 865.073 18.9797 865.073 18.369C865.073 17.7584 864.884 17.1626 864.533 16.6635L861.077 12.5L863.932 7.93515C864.297 7.44204 864.495 6.84399 864.495 6.22961C864.495 5.61523 864.297 5.01718 863.932 4.52407L863.982 5.02569Z" fill="white"/>
<path d="M64.9816 303.504C64.5895 303.033 64.0565 302.701 63.4612 302.556C62.866 302.412 62.2402 302.463 61.6762 302.702L56.6679 304.658L53.2121 300.545C52.8264 300.065 52.2963 299.723 51.7007 299.569C51.1051 299.415 50.4758 299.458 49.9067 299.692H49.4058C48.9751 299.97 48.6269 300.358 48.3978 300.817C48.1687 301.276 48.0671 301.788 48.1037 302.3L47.6029 308.169L43.446 309.724H42.9451C42.5065 309.994 42.152 310.381 41.9218 310.842C41.6917 311.303 41.5951 311.82 41.643 312.333C41.6827 312.945 41.9112 313.53 42.297 314.006C42.6828 314.482 43.2068 314.827 43.7965 314.992L48.8048 316.296L49.1554 321.713C49.1934 322.328 49.4284 322.914 49.8254 323.384C50.2225 323.854 50.7603 324.183 51.3591 324.322C51.739 324.419 52.1345 324.437 52.5218 324.377C52.9091 324.317 53.2802 324.179 53.6128 323.971C53.9612 323.722 54.2659 323.417 54.5143 323.068L57.369 318.503L62.3773 319.807C62.7572 319.904 63.1527 319.923 63.54 319.862C63.9273 319.802 64.2985 319.664 64.631 319.456C64.9795 319.207 65.2841 318.902 65.5325 318.553C65.8839 318.054 66.0725 317.458 66.0725 316.848C66.0725 316.237 65.8839 315.641 65.5325 315.142L62.0768 310.979L64.9315 306.414C65.2974 305.921 65.495 305.323 65.495 304.708C65.495 304.094 65.2974 303.496 64.9315 303.003L64.9816 303.504Z" fill="white"/>
<path opacity="0.1" d="M809.892 115.871C809.892 115.795 809.892 115.71 809.892 115.625C809.892 109.835 805.56 105.149 800.214 105.149C798.111 105.156 796.076 105.888 794.452 107.221L794.375 107.093C792.213 95.4891 782.748 86.72 771.394 86.72C769.499 86.7305 767.613 86.9873 765.785 87.484C763.512 82.0935 758.507 78.3414 752.685 78.3414C750.622 78.3595 748.589 78.836 746.734 79.7361C744.879 80.6363 743.248 81.9375 741.961 83.5451C740.547 81.2716 738.581 79.39 736.246 78.074C733.91 76.758 731.28 76.05 728.598 76.0155C727.805 76.0228 727.014 76.0909 726.231 76.2192C726.794 74.022 727.08 71.7636 727.083 69.496C727.083 55.4807 716.588 44.1225 703.642 44.1225C700.374 44.1633 697.153 44.9117 694.204 46.3158C691.254 47.72 688.646 49.7464 686.559 52.2549C683.461 44.4791 676.345 39.0377 667.995 39.0377C664.54 39.0879 661.159 40.037 658.185 41.7909C655.211 43.5448 652.748 46.0428 651.04 49.0376C649.888 46.9542 648.204 45.2115 646.159 43.9861C644.115 42.7607 641.781 42.0961 639.396 42.0597C638.078 42.0625 636.769 42.2687 635.515 42.6709C632.399 36.3552 626.254 32.0513 619.181 32.0513C612.321 32.0513 606.354 36.1005 603.162 42.1022C602.907 42.1022 602.66 42.1022 602.405 42.1022C599.95 42.1431 597.552 42.8477 595.467 44.1409C593.382 45.434 591.687 47.2672 590.565 49.4451C588.373 47.0927 585.696 45.2413 582.718 44.0181C579.741 42.7949 576.533 42.2287 573.316 42.3586C570.098 42.4884 566.947 43.3112 564.078 44.7703C561.21 46.2295 558.692 48.2905 556.697 50.8118C550.545 45.9244 542.918 43.2531 535.052 43.2312C523.987 43.2312 514.012 48.5198 507.236 56.8899C504.515 55.5818 501.532 54.9055 498.512 54.912C486.638 54.912 477.012 65.3279 477.012 78.1886C477.012 78.6725 477.054 79.1479 477.08 79.6233C475.94 79.2939 474.76 79.1225 473.573 79.1139C470.988 79.1616 468.469 79.94 466.31 81.3585C464.151 82.777 462.44 84.7775 461.376 87.1275C458.535 85.518 455.331 84.6562 452.064 84.6232C443.476 84.6232 436.139 90.3363 433.032 98.4178C431.753 95.323 429.788 92.5574 427.284 90.3284C424.78 88.0993 421.803 86.4649 418.575 85.5476C415.348 84.6303 411.953 84.454 408.648 85.0319C405.342 85.6099 402.21 86.9271 399.488 88.8847C399.156 85.7654 397.928 82.8081 395.952 80.3679C393.976 77.9277 391.335 76.1084 388.347 75.1286C385.36 74.1487 382.152 74.0501 379.109 74.8444C376.067 75.6387 373.319 77.2922 371.195 79.6063C370.72 74.3319 368.813 69.2863 365.679 65.0112C362.546 60.7362 358.303 57.3933 353.408 55.3416C348.513 53.2898 343.15 52.6067 337.895 53.3655C332.64 54.1244 327.692 56.2966 323.581 59.6488C319.273 53.6166 313.294 48.9689 306.377 46.2752C299.46 43.5816 291.905 42.9589 284.638 44.4835C277.372 46.0081 270.709 49.6138 265.466 54.8587C260.223 60.1037 256.629 66.76 255.122 74.0121C252.45 73.2406 249.682 72.8463 246.9 72.8406C239.614 72.8436 232.583 75.5149 227.141 80.3473C221.7 85.1797 218.227 91.8367 217.382 99.0544C215.557 98.4195 213.638 98.0925 211.705 98.0867C208.642 98.0877 205.634 98.8982 202.988 100.436C200.342 101.973 198.151 104.182 196.639 106.839C194.773 106.279 192.834 105.993 190.885 105.99C187.519 105.989 184.205 106.823 181.242 108.417C178.279 110.012 175.76 112.317 173.913 115.124C172.484 114.165 170.801 113.654 169.079 113.655C167.201 113.657 165.375 114.265 163.873 115.388C162.371 116.511 161.274 118.089 160.746 119.886C159.942 119.53 159.072 119.345 158.192 119.343C156.808 119.345 155.462 119.794 154.355 120.621C153.247 121.449 152.438 122.612 152.047 123.936C151.054 124.137 150.114 124.543 149.287 125.128C148.46 125.712 147.765 126.463 147.246 127.331C147.178 127.331 147.11 127.331 147.034 127.331C146.273 127.332 145.521 127.49 144.824 127.793C144.127 128.097 143.5 128.541 142.982 129.097C142.505 127.552 140.335 126.499 137.807 126.694C135.279 126.89 133.338 128.205 133.058 129.776C130.806 129.679 128.549 129.812 126.325 130.175C120.758 131.024 116.426 132.84 116.639 134.216C116.826 135.455 120.614 135.913 125.397 135.379C126.418 136.227 128.555 136.89 131.083 136.983C132.934 137.118 134.789 136.788 136.479 136.024C136.89 136.531 137.409 136.94 137.997 137.224C138.586 137.507 139.23 137.657 139.884 137.662C140.967 137.66 142.012 137.261 142.82 136.542C143.339 137.143 143.982 137.625 144.704 137.956C145.427 138.287 146.213 138.459 147.008 138.46C148.102 138.463 149.172 138.141 150.081 137.535C151.128 138.093 152.298 138.384 153.485 138.384C154.486 138.381 155.475 138.173 156.392 137.773C157.308 137.372 158.133 136.789 158.814 136.058C159.622 137.089 160.655 137.923 161.835 138.497C163.015 139.071 164.31 139.369 165.623 139.368C167.049 139.369 168.453 139.018 169.711 138.347C170.969 137.676 172.041 136.706 172.832 135.523C174.535 138.842 177.122 141.629 180.311 143.576C183.499 145.523 187.164 146.555 190.902 146.559C193.92 146.56 196.9 145.89 199.625 144.597C202.351 143.305 204.753 141.423 206.657 139.088C208.022 142.317 210.311 145.072 213.237 147.011C216.163 148.949 219.597 149.985 223.11 149.988C226.91 149.982 230.609 148.768 233.67 146.522C236.731 144.277 238.995 141.117 240.134 137.501C241.418 140.877 243.7 143.784 246.677 145.838C249.655 147.892 253.187 148.996 256.808 149.003C260.034 149.002 263.199 148.13 265.968 146.48C268.737 144.83 271.007 142.464 272.537 139.632C274.875 143.502 278.07 146.788 281.878 149.237C285.686 151.686 290.006 153.232 294.506 153.758C299.006 154.284 303.567 153.776 307.84 152.272C312.113 150.768 315.983 148.308 319.155 145.081C320.699 147.571 322.805 149.666 325.306 151.198C327.807 152.73 330.633 153.657 333.557 153.904C336.482 154.152 339.424 153.713 342.147 152.623C344.871 151.533 347.302 149.823 349.244 147.628C352.442 150.391 356.154 152.498 360.169 153.83C364.184 155.162 368.423 155.691 372.643 155.388C376.863 155.086 380.982 153.957 384.764 152.066C388.547 150.175 391.919 147.559 394.687 144.368C397.92 146.954 401.84 148.541 405.964 148.936C410.089 149.331 414.24 148.517 417.907 146.592C418.647 146.563 419.379 146.423 420.077 146.177C421.354 148.138 423.096 149.755 425.15 150.883C427.203 152.011 429.505 152.617 431.849 152.645C434.206 152.641 436.522 152.03 438.573 150.871C439.642 152.025 440.94 152.945 442.385 153.571C443.83 154.198 445.39 154.518 446.965 154.511C448.541 154.504 450.098 154.17 451.537 153.53C452.976 152.89 454.266 151.958 455.324 150.795C457.156 153.355 459.569 155.448 462.366 156.903C465.163 158.357 468.265 159.132 471.419 159.165C474.007 159.149 476.566 158.625 478.949 157.621C481.333 156.617 483.495 155.154 485.31 153.316C486.085 155.281 487.425 156.975 489.162 158.183C490.899 159.392 492.956 160.061 495.073 160.107C496.955 160.077 498.794 159.548 500.402 158.574C502.011 157.599 503.329 156.215 504.223 154.564C507.741 156.9 511.932 158.016 516.149 157.738C520.367 157.461 524.375 155.805 527.553 153.027C528.495 154.209 529.69 155.166 531.05 155.828C532.41 156.49 533.902 156.84 535.415 156.853C536.929 156.866 538.426 156.541 539.798 155.903C541.169 155.265 542.38 154.328 543.343 153.163C544.757 155.659 546.803 157.742 549.276 159.205C551.749 160.667 554.563 161.458 557.438 161.499C559.692 161.483 561.919 160.994 563.972 160.064C566.025 159.133 567.858 157.783 569.354 156.1C574.946 160.837 583.134 163.834 592.259 163.834C603.494 163.834 613.299 159.292 618.645 152.543C621.888 158.324 627.735 162.204 634.442 162.204C636.615 162.197 638.767 161.78 640.783 160.973C641.902 163.16 643.602 164.998 645.699 166.285C647.795 167.572 650.207 168.258 652.668 168.269C655.13 168.279 657.547 167.614 659.655 166.345C661.762 165.075 663.479 163.252 664.616 161.075C670.215 165.55 677.171 167.998 684.346 168.019C695.879 168.019 706.05 161.728 712.085 152.136C713.917 154.313 716.215 156.055 718.809 157.232C721.403 158.409 724.229 158.993 727.078 158.94C729.928 158.887 732.73 158.199 735.279 156.926C737.827 155.653 740.058 153.828 741.808 151.584C743.258 152.177 744.816 152.461 746.382 152.42C747.949 152.38 749.49 152.014 750.907 151.346C755.291 152.703 759.858 153.382 764.449 153.358C778.476 153.358 790.034 147.458 791.822 139.818C792.052 139.818 792.281 139.818 792.52 139.818C794.112 139.798 795.674 139.376 797.059 138.593C798.445 137.809 799.609 136.689 800.444 135.336C801.825 136.136 803.393 136.557 804.989 136.559C809.798 136.559 813.782 132.755 814.531 127.772C826.634 127.127 835.631 124.75 835.631 121.898C835.597 118.706 824.251 116.092 809.892 115.871Z" fill="white"/>
</svg>
