<svg width="240" height="240" viewBox="0 0 240 240" fill="none" xmlns="http://www.w3.org/2000/svg">
<g clip-path="url(#clip0_391_16130)">
<path d="M765.489 198.74C765.489 198.65 765.489 198.55 765.489 198.45C765.489 191.63 760.399 186.11 754.119 186.11C751.648 186.118 749.257 186.98 747.349 188.55L747.259 188.4C744.719 174.73 733.599 164.4 720.259 164.4C718.032 164.413 715.817 164.715 713.669 165.3C710.999 158.95 705.119 154.53 698.279 154.53C695.855 154.552 693.467 155.113 691.287 156.173C689.107 157.234 687.192 158.766 685.679 160.66C684.018 157.982 681.708 155.765 678.964 154.215C676.22 152.665 673.13 151.831 669.979 151.79C669.047 151.799 668.118 151.879 667.199 152.03C667.86 149.442 668.195 146.782 668.199 144.11C668.199 127.6 655.869 114.22 640.659 114.22C636.819 114.268 633.036 115.15 629.571 116.804C626.105 118.458 623.041 120.845 620.589 123.8C616.949 114.64 608.589 108.23 598.779 108.23C594.72 108.289 590.747 109.407 587.254 111.474C583.76 113.54 580.866 116.482 578.859 120.01C577.505 117.556 575.527 115.503 573.125 114.06C570.722 112.616 567.981 111.833 565.179 111.79C563.631 111.793 562.093 112.036 560.619 112.51C556.959 105.07 549.739 100 541.429 100C533.369 100 526.359 104.77 522.609 111.84C522.309 111.84 522.019 111.84 521.719 111.84C518.835 111.888 516.017 112.718 513.568 114.242C511.118 115.765 509.128 117.925 507.809 120.49C505.233 117.719 502.088 115.538 498.59 114.097C495.092 112.656 491.324 111.989 487.543 112.142C483.763 112.295 480.061 113.264 476.691 114.983C473.32 116.702 470.362 119.13 468.019 122.1C460.791 116.343 451.83 113.196 442.589 113.17C429.589 113.17 417.869 119.4 409.909 129.26C406.712 127.719 403.208 126.923 399.659 126.93C385.709 126.93 374.399 139.2 374.399 154.35C374.399 154.92 374.449 155.48 374.479 156.04C373.139 155.652 371.753 155.45 370.359 155.44C367.322 155.496 364.363 156.413 361.826 158.084C359.29 159.755 357.279 162.112 356.029 164.88C352.692 162.984 348.927 161.969 345.089 161.93C334.999 161.93 326.379 168.66 322.729 178.18C321.226 174.535 318.918 171.277 315.976 168.651C313.034 166.025 309.536 164.1 305.744 163.019C301.952 161.939 297.964 161.731 294.08 162.412C290.197 163.093 286.517 164.644 283.319 166.95C282.929 163.276 281.486 159.792 279.165 156.917C276.843 154.043 273.741 151.9 270.23 150.745C266.72 149.591 262.951 149.475 259.377 150.411C255.802 151.346 252.573 153.294 250.079 156.02C249.52 149.807 247.28 143.863 243.598 138.827C239.917 133.791 234.933 129.853 229.182 127.436C223.431 125.019 217.13 124.215 210.956 125.109C204.782 126.002 198.968 128.561 194.139 132.51C189.077 125.404 182.053 119.929 173.926 116.756C165.799 113.583 156.923 112.849 148.386 114.645C139.848 116.441 132.02 120.689 125.861 126.868C119.702 133.046 115.478 140.887 113.709 149.43C110.569 148.521 107.317 148.057 104.049 148.05C95.4886 148.054 87.2277 151.201 80.8346 156.893C74.4415 162.586 70.3614 170.428 69.3688 178.93C67.2243 178.182 64.9701 177.797 62.6988 177.79C59.1006 177.791 55.567 178.746 52.4578 180.557C49.3486 182.368 46.775 184.971 44.9988 188.1C42.8059 187.441 40.5287 187.104 38.2388 187.1C34.2834 187.099 30.3898 188.082 26.9088 189.96C23.4279 191.838 20.469 194.553 18.2988 197.86C16.62 196.731 14.6422 196.128 12.6188 196.13C10.4131 196.132 8.26729 196.848 6.50249 198.171C4.7377 199.494 3.44886 201.353 2.82883 203.47C1.88415 203.051 0.862434 202.833 -0.171165 202.83C-1.79704 202.833 -3.37847 203.361 -4.6796 204.336C-5.98074 205.311 -6.93187 206.681 -7.39117 208.24C-8.55796 208.478 -9.66234 208.956 -10.6336 209.645C-11.6048 210.333 -12.4214 211.218 -13.0312 212.24C-13.1112 212.24 -13.1912 212.24 -13.2812 212.24C-14.1749 212.242 -15.0587 212.427 -15.8776 212.785C-16.6965 213.143 -17.433 213.665 -18.0412 214.32C-18.6012 212.5 -21.1512 211.26 -24.1212 211.49C-27.0912 211.72 -29.3712 213.27 -29.7012 215.12C-32.347 215.006 -34.9976 215.163 -37.6112 215.59C-44.1512 216.59 -49.2412 218.73 -48.9912 220.35C-48.7712 221.81 -44.3212 222.35 -38.7012 221.72C-37.5012 222.72 -34.9912 223.5 -32.0212 223.61C-29.8466 223.769 -27.6671 223.38 -25.6812 222.48C-25.1983 223.077 -24.5892 223.56 -23.8976 223.894C-23.206 224.227 -22.449 224.404 -21.6812 224.41C-20.4084 224.407 -19.1809 223.938 -18.2312 223.09C-17.6217 223.798 -16.8667 224.367 -16.0177 224.757C-15.1686 225.147 -14.2455 225.349 -13.3112 225.35C-12.0262 225.354 -10.7693 224.975 -9.70116 224.26C-8.47041 224.918 -7.09646 225.261 -5.70116 225.26C-4.52568 225.257 -3.36348 225.012 -2.28663 224.54C-1.20978 224.069 -0.241261 223.381 0.55883 222.52C1.50842 223.735 2.72239 224.718 4.10857 225.394C5.49476 226.07 7.0167 226.421 8.55883 226.42C10.2344 226.421 11.8842 226.007 13.3617 225.217C14.8392 224.427 16.0989 223.284 17.0288 221.89C19.029 225.801 22.0692 229.083 25.8149 231.377C29.5607 233.671 33.8666 234.886 38.2588 234.89C41.8042 234.891 45.3053 234.102 48.5073 232.58C51.7093 231.058 54.5316 228.841 56.7688 226.09C58.3725 229.893 61.0613 233.139 64.4992 235.423C67.937 237.706 71.9716 238.926 76.0988 238.93C80.5632 238.923 84.909 237.492 88.5054 234.847C92.1018 232.202 94.7616 228.48 96.0988 224.22C97.6078 228.197 100.289 231.622 103.787 234.041C107.285 236.461 111.435 237.761 115.689 237.77C119.479 237.769 123.198 236.742 126.451 234.798C129.704 232.855 132.371 230.067 134.169 226.73C136.915 231.29 140.67 235.161 145.143 238.045C149.617 240.93 154.692 242.752 159.979 243.372C165.266 243.991 170.625 243.393 175.645 241.621C180.665 239.849 185.212 236.951 188.939 233.15C190.752 236.083 193.227 238.551 196.165 240.355C199.103 242.16 202.423 243.252 205.859 243.543C209.295 243.835 212.751 243.318 215.952 242.034C219.152 240.751 222.007 238.735 224.289 236.15C228.046 239.405 232.408 241.888 237.125 243.456C241.842 245.025 246.821 245.648 251.779 245.292C256.738 244.935 261.577 243.605 266.021 241.378C270.465 239.15 274.426 236.069 277.679 232.31C281.477 235.356 286.082 237.226 290.928 237.691C295.774 238.157 300.65 237.197 304.959 234.93C305.829 234.896 306.688 234.731 307.509 234.44C309.009 236.751 311.056 238.655 313.468 239.985C315.881 241.314 318.584 242.027 321.339 242.06C324.108 242.056 326.83 241.336 329.239 239.97C330.495 241.33 332.02 242.413 333.718 243.151C335.415 243.89 337.248 244.267 339.099 244.258C340.95 244.25 342.779 243.856 344.469 243.102C346.16 242.349 347.675 241.251 348.919 239.88C351.072 242.897 353.907 245.362 357.193 247.076C360.479 248.789 364.123 249.702 367.829 249.74C370.869 249.722 373.875 249.104 376.676 247.922C379.476 246.739 382.016 245.016 384.149 242.85C385.059 245.166 386.634 247.161 388.674 248.584C390.715 250.008 393.131 250.796 395.619 250.85C397.829 250.815 399.99 250.192 401.88 249.044C403.769 247.896 405.319 246.266 406.369 244.32C410.501 247.073 415.426 248.387 420.381 248.06C425.335 247.733 430.044 245.782 433.779 242.51C434.885 243.902 436.289 245.03 437.887 245.809C439.485 246.589 441.237 247.002 443.016 247.017C444.794 247.033 446.553 246.65 448.164 245.898C449.776 245.146 451.199 244.043 452.329 242.67C453.991 245.611 456.395 248.064 459.3 249.787C462.205 251.51 465.511 252.442 468.889 252.49C471.538 252.471 474.153 251.895 476.565 250.799C478.977 249.704 481.132 248.113 482.889 246.13C489.459 251.71 499.079 255.24 509.799 255.24C522.999 255.24 534.519 249.89 540.799 241.94C544.609 248.75 551.479 253.32 559.359 253.32C561.912 253.313 564.44 252.821 566.809 251.87C568.123 254.447 570.121 256.612 572.584 258.128C575.047 259.644 577.88 260.453 580.772 260.465C583.664 260.477 586.504 259.693 588.98 258.198C591.456 256.703 593.473 254.555 594.809 251.99C601.387 257.263 609.559 260.147 617.989 260.17C631.539 260.17 643.489 252.76 650.579 241.46C652.731 244.025 655.43 246.077 658.478 247.463C661.526 248.85 664.846 249.538 668.194 249.475C671.542 249.413 674.834 248.603 677.828 247.103C680.822 245.604 683.443 243.454 685.499 240.81C687.202 241.508 689.033 241.844 690.873 241.796C692.714 241.747 694.524 241.316 696.189 240.53C701.34 242.128 706.706 242.928 712.099 242.9C728.579 242.9 742.159 235.95 744.259 226.95C744.529 226.95 744.799 226.95 745.079 226.95C746.95 226.926 748.785 226.43 750.412 225.506C752.04 224.583 753.408 223.264 754.389 221.67C756.011 222.612 757.853 223.109 759.729 223.11C765.379 223.11 770.059 218.63 770.939 212.76C785.159 212 795.729 209.2 795.729 205.84C795.689 202.08 782.359 199 765.489 198.74Z" fill="white"/>
<path d="M155.208 142.878C145.898 146.48 135.622 146.676 126.181 143.433C116.741 140.189 108.74 133.712 103.58 125.138C98.42 116.564 96.4311 106.44 97.9618 96.541C99.4926 86.642 104.445 77.5999 111.952 71.0002C103.434 72.6441 95.499 76.5175 88.9508 82.2287C82.4025 87.9399 77.4728 95.2863 74.6604 103.525C71.8481 111.763 71.2528 120.601 72.9348 129.144C74.6169 137.687 78.5166 145.633 84.2394 152.178C89.9623 158.722 97.3052 163.633 105.525 166.413C113.745 169.193 122.551 169.744 131.052 168.011C139.552 166.277 147.445 162.32 153.934 156.54C160.422 150.76 165.274 143.362 168 135.094C164.228 138.428 159.897 141.064 155.208 142.878Z" fill="#001489"/>
</g>
<defs>
<clipPath id="clip0_391_16130">
<rect y="0.000244141" width="240" height="240" fill="white"/>
</clipPath>
</defs>
</svg>
