<svg width="800" height="444" viewBox="0 0 800 444" fill="none" xmlns="http://www.w3.org/2000/svg">
<path d="M798.884 243.947C798.483 243.474 797.938 243.141 797.329 242.996C796.72 242.851 796.08 242.902 795.503 243.142L790.38 245.104L786.846 240.979C786.451 240.498 785.909 240.155 785.3 240.001C784.691 239.847 784.047 239.89 783.465 240.124H782.952C782.512 240.403 782.156 240.793 781.921 241.253C781.687 241.713 781.583 242.227 781.621 242.74L781.108 248.625L776.856 250.184H776.344C775.895 250.454 775.533 250.842 775.297 251.305C775.062 251.767 774.963 252.285 775.012 252.799C775.053 253.413 775.287 253.999 775.681 254.477C776.076 254.954 776.612 255.3 777.215 255.465L782.338 256.773L782.696 262.205C782.735 262.821 782.976 263.408 783.382 263.88C783.788 264.351 784.338 264.681 784.95 264.82C785.339 264.917 785.743 264.936 786.14 264.876C786.536 264.815 786.915 264.677 787.256 264.468C787.612 264.219 787.924 263.913 788.178 263.563L791.098 258.986L796.22 260.294C796.609 260.391 797.013 260.409 797.41 260.349C797.806 260.288 798.185 260.15 798.526 259.941C798.882 259.692 799.194 259.386 799.448 259.036C799.807 258.536 800 257.938 800 257.326C800 256.714 799.807 256.116 799.448 255.616L795.913 251.441L798.833 246.864C799.207 246.37 799.409 245.77 799.409 245.154C799.409 244.538 799.207 243.938 798.833 243.444L798.884 243.947Z" fill="#FBCC72"/>
<path d="M153.351 187.93C152.958 187.459 152.425 187.127 151.83 186.983C151.235 186.839 150.609 186.89 150.045 187.128L145.037 189.082L141.581 184.975C141.195 184.496 140.665 184.154 140.07 184.001C139.474 183.847 138.845 183.89 138.276 184.123H137.775C137.344 184.401 136.996 184.789 136.767 185.247C136.538 185.705 136.436 186.217 136.473 186.728L135.972 192.587L131.815 194.14H131.314C130.875 194.409 130.521 194.796 130.291 195.256C130.061 195.716 129.964 196.232 130.012 196.744C130.052 197.355 130.28 197.939 130.666 198.414C131.052 198.89 131.576 199.234 132.165 199.399L137.174 200.701L137.524 206.11C137.562 206.723 137.797 207.308 138.194 207.777C138.591 208.247 139.129 208.575 139.728 208.714C140.108 208.811 140.503 208.829 140.891 208.769C141.278 208.709 141.649 208.571 141.982 208.363C142.33 208.115 142.635 207.81 142.883 207.462L145.738 202.904L150.746 204.207C151.126 204.303 151.522 204.322 151.909 204.262C152.296 204.202 152.667 204.063 153 203.856C153.348 203.608 153.653 203.303 153.901 202.955C154.253 202.456 154.441 201.861 154.441 201.252C154.441 200.642 154.253 200.047 153.901 199.549L150.446 195.392L153.3 190.834C153.666 190.342 153.864 189.745 153.864 189.132C153.864 188.518 153.666 187.921 153.3 187.429L153.351 187.93Z" fill="white"/>
<path d="M659.107 248.14C658.786 247.762 658.35 247.495 657.863 247.379C657.376 247.263 656.864 247.304 656.403 247.496L652.304 249.065L649.477 245.766C649.161 245.381 648.727 245.106 648.24 244.983C647.752 244.86 647.238 244.894 646.772 245.082H646.362C646.009 245.304 645.725 245.616 645.537 245.984C645.35 246.352 645.266 246.763 645.296 247.174L644.887 251.882L641.485 253.129H641.075C640.716 253.345 640.426 253.656 640.238 254.026C640.05 254.396 639.971 254.81 640.01 255.221C640.042 255.712 640.229 256.181 640.545 256.563C640.861 256.945 641.289 257.222 641.772 257.354L645.87 258.4L646.157 262.746C646.188 263.239 646.38 263.709 646.705 264.086C647.03 264.463 647.47 264.727 647.96 264.838C648.271 264.916 648.595 264.931 648.912 264.883C649.229 264.834 649.532 264.723 649.804 264.557C650.09 264.357 650.339 264.112 650.542 263.832L652.878 260.171L656.976 261.217C657.287 261.295 657.611 261.31 657.928 261.261C658.245 261.213 658.548 261.102 658.82 260.935C659.106 260.736 659.355 260.491 659.558 260.211C659.846 259.811 660 259.333 660 258.843C660 258.353 659.846 257.875 659.558 257.475L656.73 254.135L659.066 250.473C659.366 250.078 659.527 249.598 659.527 249.105C659.527 248.612 659.366 248.133 659.066 247.737L659.107 248.14Z" fill="white"/>
<path d="M576.118 314.777C576.192 314.248 576.43 313.756 576.799 313.37C577.167 312.984 577.647 312.723 578.171 312.623L582.779 311.722L583.38 307.114C583.441 306.583 583.668 306.085 584.027 305.69C584.386 305.295 584.861 305.022 585.383 304.91H585.884C586.333 304.914 586.774 305.037 587.161 305.266C587.548 305.494 587.867 305.821 588.088 306.213L591.243 310.269L594.999 309.468H595.5C595.952 309.461 596.396 309.579 596.785 309.809C597.174 310.039 597.492 310.371 597.704 310.77C597.969 311.235 598.078 311.773 598.015 312.305C597.952 312.837 597.72 313.335 597.353 313.725L594.148 317.181L596.452 321.288C596.673 321.671 596.789 322.106 596.787 322.548C596.786 322.991 596.667 323.425 596.443 323.807C596.219 324.189 595.898 324.504 595.512 324.721C595.127 324.939 594.69 325.05 594.248 325.044C593.884 325.119 593.509 325.119 593.146 325.044L588.889 323.04L585.684 326.496C585.449 326.753 585.163 326.958 584.843 327.096C584.524 327.234 584.179 327.303 583.831 327.297C583.467 327.369 583.093 327.369 582.729 327.297C582.258 327.053 581.869 326.677 581.611 326.214C581.353 325.751 581.237 325.222 581.276 324.693L581.877 319.985L577.57 317.982C576.979 317.717 576.504 317.245 576.237 316.655C575.969 316.064 575.927 315.396 576.118 314.777Z" fill="#FBCC72"/>
<path d="M0.117882 76.7767C0.192254 76.2482 0.430304 75.7563 0.798597 75.37C1.16689 74.9838 1.64691 74.7226 2.17126 74.6232L6.77888 73.7217L7.37989 69.114C7.44141 68.5834 7.66777 68.0853 8.02713 67.69C8.38649 67.2947 8.86078 67.0221 9.38321 66.9104H9.88403C10.3334 66.9144 10.7738 67.0369 11.1607 67.2655C11.5477 67.4942 11.8674 67.8208 12.0877 68.2125L15.2429 72.2693L18.9991 71.4679H19.4999C19.9515 71.4612 20.3962 71.5792 20.785 71.8089C21.1738 72.0387 21.4917 72.3713 21.7036 72.7701C21.9688 73.2354 22.0779 73.7734 22.0148 74.3053C21.9517 74.8371 21.7198 75.3347 21.353 75.725L18.1477 79.1807L20.4515 83.2875C20.6729 83.6708 20.7886 84.1058 20.7871 84.5484C20.7856 84.991 20.6668 85.4252 20.4429 85.807C20.2189 86.1887 19.8978 86.5042 19.5122 86.7215C19.1267 86.9387 18.6904 87.0499 18.2479 87.0437C17.8845 87.1193 17.5094 87.1193 17.146 87.0437L12.889 85.0404L9.6837 88.4961C9.44932 88.7535 9.16287 88.958 8.84338 89.0962C8.52389 89.2343 8.17865 89.3029 7.83061 89.2974C7.46682 89.369 7.09261 89.369 6.72882 89.2974C6.25812 89.0535 5.86948 88.6766 5.61125 88.2135C5.35302 87.7505 5.23659 87.2218 5.27641 86.6931L5.87738 81.9853L1.57025 79.982C0.978514 79.7173 0.504123 79.2451 0.236563 78.6547C-0.0309963 78.0642 -0.0731922 77.3962 0.117882 76.7767Z" fill="#FBCC72"/>
<path d="M293.166 425.98C293.271 425.226 293.606 424.524 294.124 423.974C294.642 423.423 295.317 423.05 296.055 422.909L302.538 421.623L303.384 415.053C303.47 414.296 303.789 413.586 304.294 413.022C304.8 412.458 305.467 412.07 306.202 411.91H306.907C307.539 411.916 308.159 412.091 308.704 412.417C309.248 412.743 309.698 413.209 310.008 413.767L314.447 419.552L319.732 418.409H320.437C321.072 418.4 321.698 418.568 322.245 418.896C322.792 419.223 323.239 419.698 323.538 420.266C323.911 420.93 324.064 421.697 323.975 422.455C323.887 423.214 323.56 423.923 323.044 424.48L318.534 429.408L321.776 435.264C322.087 435.81 322.25 436.431 322.248 437.062C322.246 437.693 322.079 438.312 321.764 438.857C321.449 439.401 320.997 439.851 320.454 440.161C319.912 440.47 319.298 440.629 318.675 440.62C318.164 440.728 317.636 440.728 317.125 440.62L311.135 437.763L306.625 442.691C306.296 443.058 305.892 443.35 305.443 443.547C304.993 443.744 304.508 443.842 304.018 443.834C303.506 443.936 302.98 443.936 302.468 443.834C301.805 443.486 301.259 442.949 300.895 442.288C300.532 441.628 300.368 440.874 300.424 440.12L301.27 433.407L295.209 430.55C294.377 430.173 293.709 429.499 293.333 428.657C292.956 427.815 292.897 426.863 293.166 425.98Z" fill="#FBCC72"/>
<path d="M275.417 316.745C273.356 316.745 271.342 316.134 269.629 314.989C267.916 313.845 266.581 312.218 265.792 310.314C265.004 308.411 264.798 306.316 265.2 304.295C265.602 302.275 266.594 300.418 268.051 298.962C269.508 297.505 271.364 296.513 273.384 296.111C275.405 295.709 277.5 295.915 279.403 296.703C281.307 297.492 282.934 298.827 284.078 300.54C285.223 302.253 285.834 304.267 285.834 306.328C285.821 309.086 284.719 311.728 282.768 313.679C280.818 315.63 278.176 316.732 275.417 316.745Z" fill="white"/>
<path d="M373.467 227.898L334.553 250.465L332.856 243.809L371.77 221.242L373.467 227.898ZM380.467 284.112C379.098 284.469 377.655 284.411 376.319 283.947C374.983 283.482 373.815 282.632 372.963 281.503C372.112 280.374 371.614 279.018 371.534 277.606C371.454 276.194 371.795 274.79 372.513 273.572C373.232 272.354 374.296 271.376 375.571 270.764C376.845 270.151 378.273 269.931 379.673 270.13C381.074 270.33 382.383 270.941 383.435 271.886C384.488 272.83 385.236 274.066 385.585 275.437C386.052 277.266 385.775 279.205 384.816 280.83C383.857 282.456 382.293 283.636 380.467 284.112ZM335.133 310.41C333.765 310.759 332.323 310.694 330.991 310.224C329.659 309.753 328.496 308.899 327.65 307.767C326.804 306.636 326.312 305.28 326.237 303.869C326.162 302.459 326.507 301.057 327.228 299.843C327.949 298.628 329.014 297.655 330.289 297.045C331.563 296.436 332.989 296.218 334.388 296.42C335.786 296.621 337.093 297.233 338.143 298.177C339.194 299.121 339.941 300.356 340.29 301.725C340.758 303.56 340.477 305.506 339.51 307.135C338.543 308.764 336.969 309.942 335.133 310.41ZM375.459 212.488C374.951 212.285 374.405 212.19 373.858 212.212C373.306 212.233 372.765 212.371 372.27 212.616L326.936 238.914C326.259 239.3 325.732 239.903 325.439 240.625C325.145 241.34 325.092 242.131 325.289 242.879L337.234 289.736C334.208 288.875 330.984 289.037 328.06 290.197C325.136 291.356 322.676 293.449 321.063 296.149C319.45 298.849 318.773 302.006 319.137 305.13C319.502 308.254 320.887 311.171 323.078 313.427C325.27 315.684 328.145 317.154 331.257 317.609C334.369 318.065 337.545 317.48 340.291 315.946C343.037 314.413 345.2 312.015 346.444 309.127C347.689 306.238 347.945 303.019 347.173 299.97L336.385 257.651L375.299 235.084L382.539 263.486C380.13 262.805 377.585 262.77 375.158 263.386C372.732 264.002 370.511 265.246 368.719 266.993C366.926 268.741 365.626 270.929 364.949 273.339C364.272 275.749 364.241 278.295 364.861 280.72C365.241 282.621 366.004 284.425 367.104 286.021C368.203 287.618 369.616 288.974 371.257 290.007C372.898 291.04 374.731 291.728 376.646 292.03C378.561 292.331 380.518 292.24 382.397 291.761C384.275 291.282 386.037 290.426 387.574 289.244C389.111 288.063 390.391 286.581 391.337 284.888C392.283 283.196 392.874 281.329 393.075 279.401C393.276 277.472 393.083 275.523 392.506 273.672L377.524 214.902C377.395 214.377 377.147 213.889 376.798 213.476C376.421 213.062 375.966 212.726 375.459 212.488Z" fill="#001489"/>
<path fill-rule="evenodd" clip-rule="evenodd" d="M126.302 428.495C125.267 428.272 124.32 427.747 123.584 426.986C122.847 426.225 122.353 425.262 122.164 424.22C121.975 423.178 122.1 422.103 122.523 421.131C122.945 420.16 123.647 419.337 124.539 418.765C125.43 418.193 126.472 417.898 127.531 417.919C128.59 417.94 129.619 418.274 130.487 418.88C131.356 419.487 132.025 420.337 132.409 421.324C132.794 422.311 132.877 423.39 132.648 424.424C132.342 425.803 131.503 427.005 130.314 427.768C129.125 428.53 127.683 428.792 126.302 428.495ZM162.306 393.51C158.034 388.9 154.603 383.576 152.171 377.78L150.154 372.602C149.963 372.057 149.587 371.595 149.091 371.299C148.606 370.996 148.032 370.869 147.464 370.938C146.897 370.956 146.356 371.176 145.939 371.56C145.5 371.936 145.19 372.439 145.05 372.999L135.988 413.853C134.619 412.585 132.934 411.707 131.109 411.313C129.044 410.847 126.887 411.006 124.912 411.767C122.937 412.529 121.232 413.859 120.013 415.59C118.794 417.321 118.117 419.375 118.066 421.491C118.015 423.607 118.594 425.691 119.728 427.479C120.863 429.266 122.502 430.677 124.438 431.532C126.375 432.387 128.522 432.648 130.607 432.283C132.692 431.917 134.622 430.941 136.152 429.478C137.682 428.015 138.743 426.13 139.202 424.064L148.406 382.566C150.991 387.869 154.308 392.784 158.258 397.165C159.37 398.438 160.051 400.03 160.204 401.712C160.358 403.395 159.976 405.083 159.114 406.536C158.251 407.989 156.952 409.133 155.401 409.804C153.85 410.475 152.127 410.639 150.478 410.273C150.135 410.197 149.78 410.189 149.435 410.25C149.089 410.311 148.758 410.44 148.462 410.628C148.166 410.817 147.91 411.062 147.708 411.35C147.507 411.637 147.364 411.962 147.288 412.305C147.212 412.647 147.204 413.002 147.265 413.348C147.326 413.693 147.454 414.024 147.643 414.32C147.832 414.616 148.077 414.872 148.365 415.074C148.652 415.275 148.977 415.418 149.319 415.494C152.102 416.163 155.026 415.921 157.661 414.804C160.295 413.687 162.502 411.754 163.957 409.289C165.411 406.825 166.037 403.958 165.741 401.112C165.445 398.266 164.244 395.589 162.314 393.476L162.306 393.51Z" fill="#001489"/>
<path d="M177.826 85.0802C166.77 89.3436 154.567 89.5758 143.357 85.7363C132.147 81.8967 122.645 74.2304 116.518 64.0815C110.39 53.9327 108.029 41.949 109.846 30.2319C111.664 18.5147 117.545 7.81185 126.459 0C116.344 1.94576 106.922 6.53067 99.1456 13.2909C91.3695 20.0511 85.5155 28.7467 82.1759 38.4981C78.8362 48.2495 78.1293 58.7107 80.1267 68.8233C82.1242 78.9358 86.7551 88.3411 93.5509 96.0874C100.347 103.834 109.066 109.646 118.828 112.937C128.589 116.228 139.046 116.881 149.14 114.829C159.234 112.776 168.608 108.093 176.313 101.251C184.017 94.4092 189.78 85.6524 193.017 75.8664C188.538 79.8129 183.395 82.9325 177.826 85.0802Z" fill="#001489"/>
</svg>
